<?xml version="1.0" encoding="utf-8"?>
<!-- Generator: Adobe Illustrator 16.0.0, SVG Export Plug-In . SVG Version: 6.00 Build 0)  -->
<!DOCTYPE svg PUBLIC "-//W3C//DTD SVG 1.1//EN" "http://www.w3.org/Graphics/SVG/1.1/DTD/svg11.dtd">
<svg version="1.1" id="Layer_1" xmlns="http://www.w3.org/2000/svg" xmlns:xlink="http://www.w3.org/1999/xlink" x="0px" y="0px"
	 width="300px" height="225px" viewBox="0 0 300 225" enable-background="new 0 0 300 225" xml:space="preserve">
<g>
	<polygon opacity="0.4" fill="#C0BFBF" points="123,24.197 82.269,0.681 123,-22.836 	"/>
	<polygon opacity="0.4" fill="#C0BFBF" points="41,-22.836 81.731,0.681 41,24.197 	"/>
	<polygon opacity="0.4" fill="#C0BFBF" points="41,118.151 0.268,94.635 41,71.119 	"/>
	<polygon opacity="0.4" fill="#C0BFBF" points="0,0.555 40.732,24.072 0,47.588 	"/>
	<polygon opacity="0.4" fill="#C0BFBF" points="82,0.555 122.731,24.072 82,47.588 	"/>
	<polygon opacity="0.4" fill="#C0BFBF" points="123,70.729 163.731,94.246 123,117.762 	"/>
	<polygon opacity="0.4" fill="#C0BFBF" points="41,164.934 0.268,141.417 41,117.901 	"/>
	<polygon opacity="0.3" fill="#010101" points="295,78.386 254.269,54.87 295,31.354 	"/>
	<polygon opacity="0.4" fill="#E0E1E0" points="254,78.136 294.731,101.652 254,125.169 	"/>
	<g opacity="0.5">
		<polygon fill="#F7F8F8" points="41,24.197 0.268,0.681 41,-22.836 		"/>
		<polygon fill="#F7F8F8" points="205,24.197 164.269,0.681 205,-22.836 		"/>
		<polygon fill="#F7F8F8" points="164,47.588 123.269,24.072 164,0.555 		"/>
	</g>
	<polygon opacity="0.3" fill="#010101" points="123,-22.836 163.731,0.681 123,24.197 	"/>
	<polygon opacity="0.3" fill="#010101" points="41,70.979 0.268,47.463 41,23.947 	"/>
	<polygon opacity="0.3" fill="#010101" points="41,71.119 81.731,94.635 41,118.151 	"/>
	<polygon opacity="0.3" fill="#010101" points="82,47.588 41.269,24.072 82,0.555 	"/>
	<polygon opacity="0.3" fill="#010101" points="123,70.979 82.269,47.463 123,23.947 	"/>
	<polygon opacity="0.3" fill="#010101" points="205,70.979 164.269,47.463 205,23.947 	"/>
	<polygon opacity="0.3" fill="#010101" points="103,198.071 62.268,174.555 103,151.039 	"/>
	<polygon opacity="0.3" fill="#010101" points="164,94.37 123.269,70.854 164,47.338 	"/>
	<polygon opacity="0.3" fill="#010101" points="0,94.51 40.732,118.025 0,141.544 	"/>
</g>
</svg>
