<?xml version="1.0" encoding="utf-8"?>
<!-- Generator: Adobe Illustrator 16.0.0, SVG Export Plug-In . SVG Version: 6.00 Build 0)  -->
<!DOCTYPE svg PUBLIC "-//W3C//DTD SVG 1.1//EN" "http://www.w3.org/Graphics/SVG/1.1/DTD/svg11.dtd">
<svg version="1.1" id="Layer_1" xmlns="http://www.w3.org/2000/svg" xmlns:xlink="http://www.w3.org/1999/xlink" x="0px" y="0px"
	 width="272.635px" height="272.637px" viewBox="0 0 272.635 272.637" enable-background="new 0 0 272.635 272.637"
	 xml:space="preserve">
<g>
	<g>
		<path fill="#E82929" d="M272.635,136.318c0,75.287-61.029,136.318-136.319,136.318C61.029,272.637,0,211.605,0,136.318
			C0,61.031,61.029,0,136.315,0C211.605,0,272.635,61.031,272.635,136.318z"/>
	</g>
	<circle fill="none" stroke="#FFFFFF" stroke-width="1.2401" stroke-miterlimit="10" cx="136.318" cy="136.318" r="128.628"/>
</g>
<g>
	<g>
		<path fill="#FCFAFB" stroke="#FCFAFB" stroke-width="0.1222" stroke-miterlimit="10" d="M247.573,85.342l-8.874-12.092
			l-1.249,7.085h-23.769h-10.471h-4.41h-5.491c2.301,2.164,4.461,5.386,5.059,9.983h15.04l-7.902,43.884h11.854l7.902-43.884h10.378
			l-1.08,5.981L247.573,85.342z"/>
		<path fill="#FCFAFB" stroke="#FCFAFB" stroke-width="0.1222" stroke-miterlimit="10" d="M154.568,88.829
			c-0.109,0.162-0.246,0.356-0.351,0.519c-0.054,0.105-0.106,0.215-0.189,0.322c-0.056,0.109-0.135,0.216-0.195,0.354
			c-0.047,0.108-0.13,0.188-0.157,0.294c-0.113,0.193-0.212,0.409-0.331,0.594c-0.052,0.11-0.099,0.245-0.163,0.379
			c-0.048,0.11-0.105,0.219-0.158,0.351c-0.053,0.113-0.104,0.247-0.13,0.354c-0.088,0.138-0.137,0.301-0.169,0.437
			c-0.053,0.108-0.073,0.184-0.133,0.325c-0.056,0.213-0.134,0.454-0.215,0.701c-0.029,0.11-0.057,0.185-0.057,0.274
			c-0.056,0.18-0.106,0.372-0.158,0.56c-0.03,0.083-0.057,0.166-0.057,0.246c-0.056,0.27-0.135,0.545-0.165,0.812
			c-1.347,7.494,3.17,12.496,13.45,15.019c2.79,0.7,4.943,1.269,6.575,1.667c1.591,0.443,2.704,0.819,3.296,1.092
			c2.869,1.373,4.09,3.27,3.626,5.681c0,0.133-0.048,0.292-0.081,0.433c-0.021,0.047-0.021,0.08-0.021,0.133
			c-0.032,0.083-0.054,0.188-0.087,0.269c-0.024,0.05-0.024,0.107-0.056,0.188c-0.027,0.078-0.054,0.163-0.08,0.247
			c-0.028,0.054-0.049,0.079-0.049,0.136c-0.035,0.106-0.085,0.186-0.115,0.271c0,0-0.052,0.077-0.052,0.133
			c-0.056,0.083-0.106,0.187-0.14,0.299l-0.053,0.073c-0.13,0.254-0.263,0.491-0.434,0.711l-0.023,0.024
			c-0.079,0.113-0.161,0.216-0.213,0.299l-0.084,0.081c-0.055,0.083-0.133,0.158-0.22,0.241c0,0-0.021,0.062-0.08,0.062
			c-0.047,0.101-0.156,0.182-0.242,0.271l-0.028,0.017c-0.425,0.407-0.944,0.758-1.483,1.058h-0.031
			c-0.137,0.086-0.269,0.167-0.4,0.216l-0.028,0.03c-0.166,0.08-0.298,0.134-0.463,0.191c-1.814,0.753-4.114,1.133-6.98,1.133
			c-0.244,0-0.486,0-0.729,0c-0.082,0-0.163-0.025-0.22-0.025c-0.188,0-0.371,0-0.592-0.029c-0.028,0-0.051,0-0.137,0
			c-0.242-0.028-0.459-0.054-0.674-0.108c-0.059,0-0.086,0-0.086,0c-0.237-0.025-0.434-0.054-0.618-0.107
			c-0.057,0-0.08,0-0.137-0.027c-0.459-0.082-0.896-0.194-1.299-0.323l-0.087-0.028c-0.182-0.055-0.369-0.133-0.563-0.187
			l-0.027-0.03c-0.218-0.08-0.434-0.163-0.621-0.267c-0.163-0.058-0.323-0.139-0.493-0.221l-0.076-0.049
			c-0.109-0.081-0.246-0.167-0.374-0.219c-0.033-0.031-0.057-0.056-0.057-0.056c-0.162-0.109-0.27-0.164-0.381-0.246
			c-0.054-0.024-0.083-0.052-0.107-0.078c-0.163-0.109-0.269-0.192-0.432-0.326c-1.053-0.807-1.791-1.866-2.141-3.107
			c-0.32-1.275-0.35-2.706-0.08-4.33h-11.063c-0.081,0.35-0.139,0.674-0.188,1.025c0,0.053,0,0.083,0,0.139
			c-0.057,0.295-0.109,0.622-0.109,0.917c-0.027,0.055-0.055,0.136-0.055,0.214c0,0.272-0.02,0.538-0.057,0.811
			c0,0.112,0,0.194,0,0.303c0,0.242,0,0.487,0,0.724c0,0.114,0,0.216,0,0.356c0,0.188,0,0.382,0.037,0.57
			c0,0.165,0.02,0.328,0.02,0.491c0.027,0.1,0.055,0.212,0.055,0.347c0.022,0.245,0.053,0.457,0.109,0.677
			c0,0.079,0,0.159,0.05,0.213c0.058,0.296,0.11,0.567,0.169,0.838c0,0,0.026,0.054,0.026,0.111
			c0.188,0.565,0.347,1.109,0.592,1.649c0,0,0.027,0.029,0.027,0.058c0.084,0.213,0.214,0.458,0.33,0.677
			c0,0,0.021,0.047,0.049,0.105c0.11,0.188,0.217,0.38,0.323,0.597c0.054,0.053,0.085,0.108,0.112,0.158
			c0.11,0.188,0.212,0.347,0.349,0.544c0.086,0.056,0.138,0.134,0.164,0.21c0.136,0.137,0.24,0.307,0.353,0.463
			c0.079,0.079,0.159,0.162,0.239,0.273c0.107,0.109,0.22,0.242,0.327,0.376c0.139,0.111,0.243,0.241,0.377,0.356
			c0.087,0.103,0.17,0.187,0.269,0.269c0.228,0.221,0.465,0.429,0.71,0.625c3.488,3.028,8.385,4.542,14.661,4.542
			c3.952,0,7.492-0.513,10.625-1.546c0.333-0.104,0.655-0.212,0.953-0.321c0.107-0.055,0.246-0.112,0.378-0.136
			c0.19-0.08,0.375-0.163,0.566-0.248c0.14-0.024,0.272-0.104,0.409-0.158c0.157-0.083,0.353-0.137,0.518-0.216
			c0.128-0.084,0.27-0.138,0.374-0.19c0.188-0.109,0.348-0.162,0.514-0.272c0.132-0.053,0.242-0.133,0.403-0.19
			c0.167-0.08,0.321-0.186,0.489-0.271c0.137-0.079,0.24-0.135,0.355-0.188c0.187-0.135,0.348-0.241,0.564-0.351
			c0.08-0.083,0.158-0.137,0.269-0.191c0.276-0.162,0.543-0.354,0.817-0.535c4.243-2.93,6.817-6.899,7.68-11.938
			c0.783-4.302,0-7.683-2.323-10.148c-1.086-1.05-2.488-1.995-4.281-2.863c-1.755-0.86-3.926-1.625-6.465-2.219
			c-2.95-0.706-5.381-1.354-7.247-1.917c-1.866-0.543-3.192-1.028-3.927-1.434c-2.269-1.002-3.212-2.493-2.892-4.413
			c0.028-0.188,0.083-0.375,0.133-0.57c0,0,0-0.048,0.027-0.048c0.026-0.197,0.11-0.36,0.16-0.516
			c0.037-0.028,0.037-0.058,0.037-0.058c0.077-0.19,0.154-0.345,0.233-0.508c0.032-0.031,0.032-0.054,0.032-0.054
			c0.103-0.191,0.189-0.362,0.323-0.522l0,0c0.216-0.348,0.487-0.644,0.787-0.969l0.023-0.029c0.166-0.133,0.305-0.272,0.49-0.435
			l0.028-0.023c0.156-0.138,0.348-0.271,0.541-0.409c0.104-0.075,0.188-0.133,0.296-0.187c0.109-0.083,0.213-0.163,0.329-0.218
			c1.589-0.948,3.46-1.409,5.648-1.409c0.188,0,0.406,0,0.591,0c0.083,0,0.138,0,0.22,0c0.136,0,0.243,0.032,0.356,0.032
			c0.08,0,0.185,0,0.261,0c0.117,0.021,0.195,0.021,0.271,0.021c0.117,0.028,0.225,0.028,0.327,0.028
			c0.082,0.026,0.165,0.026,0.219,0.026c0.111,0,0.217,0.028,0.327,0.055c0.056,0,0.104,0,0.19,0.027
			c0.104,0.026,0.216,0.026,0.325,0.055c0.051,0,0.106,0,0.162,0c0.104,0.028,0.243,0.055,0.347,0.08
			c0.03,0,0.082,0.029,0.082,0.029c0.16,0.026,0.271,0.053,0.383,0.082c0.027,0,0.085,0.026,0.085,0.026
			c0.158,0.025,0.265,0.058,0.377,0.108c0,0,0.048,0,0.076,0.025c0.109,0.03,0.217,0.054,0.322,0.086l0.087,0.052
			c0.106,0.027,0.217,0.08,0.319,0.111c0.031,0.024,0.031,0.024,0.031,0.024c0.134,0.06,0.242,0.117,0.35,0.134l0.057,0.03
			c0.105,0.049,0.216,0.108,0.322,0.162v0.026c0.109,0.055,0.216,0.112,0.327,0.161v0.028c0.111,0.026,0.213,0.11,0.324,0.188l0,0
			c0.11,0.083,0.185,0.141,0.273,0.216c0.099,0.083,0.209,0.163,0.289,0.271h0.028c0.055,0.052,0.165,0.161,0.246,0.246h0.023
			c0.053,0.108,0.142,0.187,0.221,0.295l0,0c0.104,0.083,0.162,0.193,0.218,0.271l0.027,0.029c0.053,0.107,0.127,0.187,0.185,0.295
			v0.029c0.058,0.109,0.11,0.216,0.16,0.292l0.035,0.063c0.052,0.099,0.106,0.188,0.134,0.269l0.021,0.077
			c0.03,0.111,0.058,0.191,0.115,0.303l0.022,0.079c0.026,0.084,0.059,0.191,0.081,0.296c0,0.028,0.031,0.058,0.031,0.079
			c0.022,0.084,0.022,0.196,0.052,0.296c0,0,0,0.06,0.025,0.113c0.027,0.078,0.027,0.219,0.06,0.292v0.111
			c0.022,0.106,0.022,0.215,0.022,0.326c0,0,0.028,0.051,0.028,0.107c0,0.105,0,0.216,0,0.323v0.117c0,0.131,0,0.236,0,0.343
			c0,0,0,0.084,0,0.145c0,0.103,0,0.21-0.028,0.344c0,0,0,0.083,0,0.107c0,0.163-0.022,0.329-0.055,0.492h11.258
			c0.048-0.297,0.104-0.624,0.136-0.925c0.024-0.133,0.024-0.237,0.051-0.353c0.024-0.184,0.024-0.375,0.054-0.542
			c0.031-0.158,0.031-0.291,0.031-0.426c0-0.138,0.022-0.298,0.022-0.439c0-0.163,0-0.319,0-0.452c0-0.058,0-0.115,0-0.163
			c0-0.443,0-0.82-0.022-1.224c0-0.05,0-0.08,0-0.08c-0.061-0.241-0.061-0.458-0.085-0.649c-0.026-0.054-0.026-0.107-0.026-0.132
			c-0.024-0.217-0.056-0.433-0.112-0.626l0,0v-0.025c-0.048-0.325-0.104-0.624-0.216-0.921c0-0.024-0.021-0.108-0.021-0.108
			c-0.083-0.298-0.168-0.542-0.25-0.786c-0.021-0.055-0.051-0.105-0.081-0.189c-0.051-0.103-0.078-0.24-0.133-0.351
			c-0.05-0.109-0.109-0.191-0.137-0.271c-0.079-0.187-0.188-0.35-0.266-0.54c-0.03-0.081-0.111-0.192-0.166-0.295
			c-0.055-0.08-0.113-0.197-0.162-0.271c-0.082-0.164-0.222-0.328-0.32-0.518c-0.057-0.051-0.111-0.135-0.163-0.212
			c-0.138-0.167-0.241-0.329-0.38-0.489c-0.025-0.024-0.08-0.08-0.113-0.138c-0.135-0.136-0.271-0.295-0.403-0.428
			c-0.056-0.054-0.107-0.082-0.138-0.136c-0.188-0.163-0.348-0.326-0.511-0.488c-0.056-0.057-0.11-0.079-0.135-0.107
			c-0.19-0.163-0.404-0.357-0.62-0.511c-0.214-0.167-0.465-0.356-0.707-0.518c-0.054-0.055-0.137-0.082-0.186-0.138
			c-0.192-0.107-0.354-0.217-0.544-0.324c-0.076-0.056-0.163-0.109-0.244-0.133c-0.188-0.138-0.379-0.246-0.538-0.326
			c-0.107-0.053-0.163-0.082-0.272-0.106c-0.186-0.138-0.4-0.216-0.623-0.326c-0.083-0.029-0.135-0.053-0.186-0.083
			c-1.949-0.894-4.249-1.455-6.851-1.725c-0.074-0.033-0.187-0.033-0.294-0.033c-0.188-0.026-0.356-0.05-0.542-0.05
			c-0.159,0-0.294-0.029-0.46-0.029c-0.132-0.03-0.295-0.03-0.453-0.03c-0.219-0.026-0.391-0.026-0.603-0.026
			c-0.131-0.027-0.273-0.027-0.376-0.027c-0.327,0-0.677,0-1.003,0c-0.328,0-0.619,0-0.917,0c-0.109,0-0.22,0-0.356,0.027
			c-0.162,0-0.354,0-0.541,0.026c-0.137,0-0.265,0-0.432,0.03c-0.137,0-0.269,0.029-0.431,0.029c-0.165,0-0.327,0.024-0.486,0.05
			c-0.109,0-0.213,0-0.302,0.033c-0.184,0.024-0.401,0.051-0.59,0.072h-0.036c-0.94,0.116-1.889,0.304-2.774,0.516
			c-0.252,0.061-0.462,0.109-0.717,0.163c-2.373,0.681-4.617,1.678-6.704,3.064c-0.239,0.133-0.506,0.295-0.756,0.458
			c-0.055,0.025-0.107,0.08-0.159,0.108c-0.249,0.189-0.465,0.324-0.682,0.509c-0.055,0.032-0.077,0.051-0.131,0.086
			c-0.19,0.158-0.384,0.295-0.545,0.458c-0.085,0.029-0.136,0.083-0.161,0.106c-0.214,0.164-0.405,0.353-0.594,0.514
			c-0.053,0.056-0.107,0.135-0.194,0.185c-0.132,0.139-0.265,0.276-0.408,0.409c-0.077,0.059-0.13,0.114-0.158,0.168
			c-0.189,0.162-0.345,0.354-0.486,0.51c-0.079,0.08-0.131,0.163-0.216,0.24c-0.108,0.138-0.242,0.303-0.352,0.439
			c-0.105,0.103-0.159,0.189-0.241,0.326c-0.109,0.103-0.19,0.237-0.296,0.351C154.706,88.641,154.65,88.75,154.568,88.829z"/>
		<path fill="#FCFAFB" stroke="#FCFAFB" stroke-width="0.1222" stroke-miterlimit="10" d="M132.223,134.202h7.521h7.547
			c-0.134-0.106-0.242-0.194-0.35-0.275c-2.463-2.054-5.056-5.192-6.139-9.732h-8.579v0.081h-20.001l2.39-13.313h26.841l1.676-9.142
			h-26.844l2.063-11.502h23.308h5.722c1.456-3.949,4-7.303,7.545-9.983h-5.441h-7.825H108.23l-9.745,53.867H132.223z"/>
	</g>
</g>
<path fill="#FCFAFB" d="M98.244,95.417c0.856-4.222,0.215-7.677-1.904-10.271c-2.816-3.444-7.967-5.118-15.748-5.118H54.053
	l-11.157,54.525h30.992c5.988,0,11.093-1.626,15.227-4.876c1.749-1.467,3.212-3.148,4.347-4.992c1.154-1.867,1.97-3.961,2.426-6.23
	c0.795-3.998,0.326-7.292-1.396-9.79c-0.852-1.235-1.996-2.256-3.425-3.057C94.928,103.201,97.334,99.791,98.244,95.417z
	 M80.719,122.635c-0.889,0.596-1.951,1.068-3.154,1.404c-1.236,0.344-2.575,0.519-3.98,0.519H57.013l2.63-12.996h15.33
	c4.321,0,7.253,0.792,8.479,2.292c0.757,0.925,0.946,2.254,0.574,4.092c-0.184,0.972-0.543,1.817-1.098,2.58
	C82.328,121.345,81.584,122.055,80.719,122.635z M64.054,90.025h13.578c4.403,0,6.421,0.573,7.363,1.066
	c0.615,0.313,1.896,0.962,1.216,4.194c-0.549,2.695-2.236,6.278-10.508,6.278H61.724L64.054,90.025z"/>
<g>
	<path fill="#FCFAFB" stroke="#FCFAFB" stroke-width="0.1222" stroke-miterlimit="10" d="M40.238,174.381H35.66l4.363-24.781h4.613
		L40.238,174.381z"/>
	<path fill="#FCFAFB" stroke="#FCFAFB" stroke-width="0.1222" stroke-miterlimit="10" d="M66.098,174.381h-4.334l-8.135-16.563
		l-2.938,16.563h-4.417l4.36-24.781H55l8.076,16.619l2.91-16.619h4.497L66.098,174.381z"/>
	<path fill="#FCFAFB" stroke="#FCFAFB" stroke-width="0.1222" stroke-miterlimit="10" d="M95.157,161.855
		c-1.483,8.348-6.436,12.525-14.893,12.525h-8.141l4.372-24.781h8.155C93.082,149.6,96.582,153.697,95.157,161.855z M90.418,161.855
		c0.24-1.234,0.294-2.342,0.24-3.338c-0.078-0.998-0.368-1.834-0.83-2.535c-0.518-0.672-1.212-1.207-2.183-1.561
		c-0.968-0.381-2.211-0.539-3.774-0.539h-3.504l-2.85,16.24h3.504c1.504,0,2.85-0.186,3.927-0.568
		c1.077-0.379,2.018-0.912,2.751-1.617c0.725-0.725,1.299-1.557,1.717-2.584C89.852,164.334,90.204,163.15,90.418,161.855z"/>
	<path fill="#FCFAFB" stroke="#FCFAFB" stroke-width="0.1222" stroke-miterlimit="10" d="M113.068,149.193
		c1.725,0,3.23,0.328,4.608,0.947c1.341,0.594,2.454,1.453,3.31,2.586c0.867,1.104,1.459,2.424,1.75,4.037
		c0.323,1.564,0.323,3.287-0.025,5.203c-0.328,1.906-0.919,3.629-1.771,5.195c-0.872,1.584-1.95,2.906-3.188,4.066
		c-1.232,1.109-2.663,1.965-4.229,2.611c-1.559,0.619-3.225,0.943-4.979,0.943s-3.285-0.324-4.66-0.943
		c-1.345-0.619-2.45-1.479-3.288-2.611c-0.859-1.129-1.429-2.482-1.748-4.039c-0.319-1.566-0.319-3.316,0.048-5.223
		c0.327-1.916,0.923-3.666,1.811-5.258c0.864-1.559,1.941-2.906,3.206-4.008c1.239-1.137,2.637-1.967,4.203-2.59
		C109.674,149.521,111.345,149.193,113.068,149.193z M109.242,170.66c1.057,0,2.047-0.188,3.013-0.592
		c0.972-0.375,1.83-0.971,2.588-1.695c0.786-0.754,1.432-1.641,1.997-2.75c0.537-1.074,0.912-2.289,1.186-3.656
		c0.212-1.383,0.271-2.59,0.074-3.666c-0.156-1.051-0.506-1.969-1.021-2.697c-0.51-0.754-1.157-1.314-1.97-1.697
		c-0.806-0.373-1.721-0.559-2.744-0.559c-1.051,0-2.041,0.186-3.016,0.592c-0.941,0.373-1.803,0.943-2.586,1.695
		c-0.749,0.756-1.451,1.643-1.99,2.719c-0.536,1.072-0.945,2.268-1.182,3.613c-0.22,1.367-0.277,2.582-0.11,3.656
		c0.155,1.109,0.51,1.996,1.024,2.75c0.483,0.725,1.154,1.32,1.959,1.695C107.277,170.473,108.215,170.66,109.242,170.66z"/>
	<path fill="#FCFAFB" stroke="#FCFAFB" stroke-width="0.1222" stroke-miterlimit="10" d="M144.367,157.383
		c0-0.619-0.141-1.182-0.385-1.697c-0.205-0.506-0.555-0.91-0.965-1.264c-0.435-0.35-0.919-0.592-1.48-0.787
		c-0.563-0.18-1.215-0.27-1.913-0.27c-1.079,0-2.043,0.189-2.965,0.574c-0.912,0.373-1.745,0.91-2.474,1.646
		c-0.727,0.719-1.354,1.609-1.857,2.688c-0.52,1.078-0.893,2.289-1.158,3.693c-0.216,1.395-0.268,2.637-0.168,3.713
		c0.168,1.082,0.434,1.988,0.917,2.723c0.487,0.75,1.085,1.314,1.862,1.697c0.779,0.373,1.689,0.561,2.748,0.561
		c1.478,0,2.769-0.377,3.875-1.156c1.133-0.758,1.918-1.885,2.446-3.344h4.748c-0.437,1.406-1.029,2.615-1.775,3.691
		c-0.755,1.078-1.675,1.967-2.7,2.699c-1.024,0.727-2.148,1.289-3.389,1.66c-1.245,0.387-2.535,0.572-3.906,0.572
		c-1.779,0-3.344-0.299-4.658-0.918c-1.322-0.588-2.404-1.426-3.207-2.559c-0.805-1.127-1.347-2.48-1.618-4.041
		c-0.268-1.559-0.218-3.338,0.137-5.299c0.32-1.939,0.917-3.693,1.755-5.283c0.83-1.564,1.824-2.914,3.038-4.016
		c1.185-1.129,2.554-1.965,4.096-2.582c1.558-0.592,3.2-0.893,4.952-0.893c1.294,0,2.452,0.191,3.529,0.596
		c1.076,0.371,1.987,0.945,2.774,1.645c0.774,0.729,1.378,1.563,1.804,2.582c0.455,1.031,0.671,2.156,0.655,3.367H144.367z"/>
	<path fill="#FCFAFB" stroke="#FCFAFB" stroke-width="0.1222" stroke-miterlimit="10" d="M170.866,174.381h-4.66l1.938-10.99
		h-10.561l-1.959,10.99h-4.582l4.358-24.781h4.613l-1.694,9.533h10.575l1.697-9.533h4.664L170.866,174.381z"/>
	<path fill="#FCFAFB" stroke="#FCFAFB" stroke-width="0.1222" stroke-miterlimit="10" d="M181.475,174.381h-4.576l4.359-24.781
		h4.579L181.475,174.381z"/>
	<path fill="#FCFAFB" stroke="#FCFAFB" stroke-width="0.1222" stroke-miterlimit="10" d="M207.334,174.381h-4.363l-8.106-16.563
		l-2.939,16.563h-4.444l4.359-24.781h4.4l8.054,16.619l2.936-16.619h4.47L207.334,174.381z"/>
	<path fill="#FCFAFB" stroke="#FCFAFB" stroke-width="0.1222" stroke-miterlimit="10" d="M234.459,174.381h-5.177l-1.452-7.084
		h-8.645l-3.854,7.084h-4.905l13.925-24.781h4.371L234.459,174.381z M227.077,163.361l-1.616-7.865l-4.206,7.865H227.077z"/>
</g>
<polygon fill="#FCFAFB" stroke="#FCFAFB" stroke-width="0.1222" stroke-miterlimit="10" points="239.286,195.086 31.412,195.086 
	34.365,179.873 235.747,179.873 "/>
<path fill="#FCFAFB" stroke="#FCFAFB" stroke-width="0.1222" stroke-miterlimit="10" d="M41.186,143.334h186.089l-0.714-3.074l0,0
	l-184.85,0.281C41.243,143.004,41.703,140.357,41.186,143.334z"/>
<g>
	<path fill="#EC2024" stroke="#EC2024" stroke-width="0.1469" stroke-miterlimit="10" d="M48.234,191.246l-1.059-5.459l-0.051-0.5
		l-0.162,0.514l-2.167,5.445h-0.639l-2.185-5.426l-0.16-0.547l-0.065,0.527l-1.091,5.445h-1.109l1.718-8.479h0.644l2.551,6.375
		l2.557-6.375h0.643l1.701,8.479H48.234z"/>
	<path fill="#EC2024" stroke="#EC2024" stroke-width="0.1469" stroke-miterlimit="10" d="M52.194,194.133h-1.142l1.18-2.74
		l-2.843-6.008h1.156l2.266,4.721l2.01-4.721h1.137L52.194,194.133z"/>
	<path fill="#EC2024" stroke="#EC2024" stroke-width="0.1469" stroke-miterlimit="10" d="M61.015,191.246v-0.576
		c-0.511,0.459-1.142,0.691-1.893,0.691c-0.471,0-0.894-0.084-1.268-0.248s-0.692-0.387-0.953-0.67
		c-0.264-0.281-0.464-0.611-0.604-0.988c-0.141-0.375-0.211-0.773-0.211-1.193c0-0.424,0.07-0.816,0.211-1.184
		s0.339-0.688,0.6-0.959c0.26-0.271,0.576-0.486,0.944-0.643c0.37-0.156,0.787-0.234,1.248-0.234c0.756,0,1.397,0.223,1.926,0.672
		v-0.559h1.058v5.891H61.015z M61.062,188.213c0-0.285-0.047-0.549-0.139-0.791c-0.093-0.242-0.226-0.447-0.398-0.627
		c-0.172-0.172-0.382-0.311-0.627-0.408c-0.246-0.1-0.522-0.15-0.827-0.15c-0.277,0-0.533,0.055-0.769,0.166
		c-0.236,0.113-0.439,0.262-0.61,0.449c-0.17,0.188-0.305,0.4-0.401,0.645c-0.097,0.246-0.146,0.5-0.146,0.766
		c0,0.283,0.045,0.553,0.139,0.807c0.091,0.256,0.221,0.48,0.39,0.672c0.168,0.193,0.372,0.344,0.616,0.457
		c0.24,0.111,0.514,0.168,0.816,0.168c0.308,0,0.585-0.057,0.826-0.166c0.244-0.111,0.449-0.264,0.616-0.459
		s0.295-0.424,0.383-0.684C61.019,188.795,61.062,188.514,61.062,188.213z"/>
	<path fill="#EC2024" stroke="#EC2024" stroke-width="0.1469" stroke-miterlimit="10" d="M66.957,191.246v-3.469
		c0-0.271-0.013-0.504-0.04-0.695c-0.027-0.193-0.083-0.348-0.163-0.469c-0.081-0.121-0.195-0.207-0.345-0.264
		c-0.149-0.055-0.347-0.08-0.593-0.08c-0.164,0-0.313,0.029-0.447,0.094c-0.136,0.063-0.256,0.148-0.364,0.25
		c-0.106,0.104-0.2,0.227-0.279,0.365c-0.079,0.143-0.146,0.289-0.198,0.443c-0.052,0.156-0.092,0.314-0.118,0.475
		c-0.024,0.162-0.039,0.314-0.039,0.461v2.889h-1.059v-5.861h1.059v0.598c0.22-0.227,0.453-0.406,0.7-0.533
		c0.246-0.127,0.512-0.191,0.794-0.191c0.428,0,0.783,0.061,1.063,0.184s0.501,0.293,0.664,0.516
		c0.163,0.221,0.277,0.484,0.344,0.795c0.065,0.309,0.098,0.652,0.098,1.025v3.469H66.957z"/>
	<path fill="#EC2024" stroke="#EC2024" stroke-width="0.1469" stroke-miterlimit="10" d="M76.963,191.246h-1.094v-3.598
		c0-0.223-0.012-0.426-0.034-0.6c-0.021-0.176-0.067-0.324-0.137-0.443c-0.067-0.121-0.168-0.211-0.298-0.275
		c-0.129-0.061-0.299-0.094-0.511-0.094c-0.236,0-0.433,0.049-0.59,0.141c-0.159,0.092-0.285,0.217-0.38,0.379
		c-0.096,0.158-0.165,0.346-0.206,0.559c-0.039,0.217-0.061,0.445-0.061,0.689v3.242h-1.059v-3.451c0-0.236-0.013-0.445-0.04-0.635
		c-0.027-0.193-0.08-0.357-0.156-0.492c-0.077-0.139-0.185-0.244-0.32-0.32c-0.136-0.072-0.313-0.111-0.529-0.111
		c-0.136,0-0.26,0.027-0.371,0.086c-0.113,0.055-0.214,0.131-0.302,0.229c-0.088,0.096-0.163,0.209-0.228,0.336
		c-0.067,0.129-0.119,0.266-0.162,0.406c-0.042,0.143-0.073,0.291-0.093,0.441c-0.021,0.148-0.033,0.293-0.033,0.432v3.08h-1.073
		v-5.861h1.073l-0.015,0.547c0.184-0.25,0.389-0.426,0.617-0.531c0.229-0.107,0.467-0.158,0.717-0.158
		c0.346,0,0.646,0.064,0.902,0.197c0.254,0.131,0.467,0.322,0.638,0.574c0.225-0.283,0.479-0.482,0.762-0.598
		c0.283-0.117,0.587-0.174,0.908-0.174c0.289,0,0.542,0.031,0.756,0.094c0.214,0.061,0.399,0.15,0.552,0.264
		c0.156,0.115,0.281,0.248,0.379,0.402c0.099,0.154,0.176,0.324,0.233,0.51c0.058,0.182,0.099,0.375,0.121,0.58
		c0.021,0.203,0.032,0.412,0.032,0.623V191.246z"/>
	<path fill="#EC2024" stroke="#EC2024" stroke-width="0.1469" stroke-miterlimit="10" d="M82.789,191.246v-0.576
		c-0.51,0.459-1.142,0.691-1.895,0.691c-0.469,0-0.892-0.084-1.265-0.248c-0.376-0.164-0.692-0.387-0.956-0.67
		c-0.262-0.281-0.464-0.611-0.602-0.988c-0.143-0.375-0.211-0.773-0.211-1.193c0-0.424,0.068-0.816,0.211-1.184
		c0.138-0.367,0.338-0.688,0.598-0.959s0.576-0.486,0.945-0.643c0.37-0.156,0.786-0.234,1.249-0.234
		c0.755,0,1.396,0.223,1.925,0.672v-0.559h1.059v5.891H82.789z M82.835,188.213c0-0.285-0.046-0.549-0.139-0.791
		s-0.226-0.447-0.397-0.627c-0.172-0.172-0.381-0.311-0.627-0.408c-0.245-0.1-0.521-0.15-0.827-0.15
		c-0.277,0-0.533,0.055-0.77,0.166c-0.234,0.113-0.438,0.262-0.608,0.449c-0.173,0.188-0.306,0.4-0.404,0.645
		c-0.095,0.246-0.144,0.5-0.144,0.766c0,0.283,0.046,0.553,0.138,0.807c0.092,0.256,0.221,0.48,0.391,0.672
		c0.168,0.193,0.373,0.344,0.614,0.457c0.242,0.111,0.515,0.168,0.818,0.168c0.309,0,0.584-0.057,0.827-0.166
		c0.242-0.111,0.447-0.264,0.615-0.459c0.167-0.195,0.295-0.424,0.381-0.684C82.793,188.795,82.835,188.514,82.835,188.213z"/>
	<path fill="#EC2024" stroke="#EC2024" stroke-width="0.1469" stroke-miterlimit="10" d="M87.7,186.512
		c-0.066-0.035-0.126-0.064-0.172-0.084c-0.048-0.021-0.088-0.035-0.12-0.043c-0.033-0.01-0.059-0.016-0.078-0.018
		c-0.021,0-0.035,0-0.045,0c-0.163,0-0.303,0.029-0.419,0.088c-0.118,0.063-0.219,0.143-0.303,0.248
		c-0.084,0.102-0.151,0.221-0.204,0.355c-0.052,0.135-0.093,0.275-0.123,0.424c-0.03,0.146-0.051,0.297-0.061,0.453
		c-0.011,0.152-0.015,0.299-0.015,0.438v2.891h-1.077v-5.879h1.077v0.547c0.059-0.08,0.132-0.16,0.216-0.238
		c0.085-0.08,0.177-0.15,0.275-0.213c0.098-0.064,0.199-0.113,0.307-0.152c0.107-0.037,0.217-0.055,0.326-0.055
		c0.06,0,0.12,0,0.183,0.006c0.061,0.004,0.128,0.012,0.205,0.025c0.076,0.016,0.161,0.035,0.257,0.063
		c0.096,0.029,0.208,0.066,0.335,0.117L87.7,186.512z"/>
	<path fill="#EC2024" stroke="#EC2024" stroke-width="0.1469" stroke-miterlimit="10" d="M90.652,192.277h-1.157l5.767-10.471h1.109
		L90.652,192.277z"/>
	<path fill="#EC2024" stroke="#EC2024" stroke-width="0.1469" stroke-miterlimit="10" d="M101.268,191.246h-0.64l-2.925-8.479h1.173
		l1.944,5.684l0.145,0.582l0.141-0.582l1.945-5.684h1.172L101.268,191.246z"/>
	<path fill="#EC2024" stroke="#EC2024" stroke-width="0.1469" stroke-miterlimit="10" d="M106.215,183.379
		c0,0.109-0.02,0.211-0.058,0.301c-0.04,0.094-0.096,0.172-0.164,0.238c-0.069,0.066-0.15,0.119-0.245,0.158
		c-0.095,0.037-0.195,0.055-0.306,0.055c-0.106,0-0.206-0.018-0.299-0.055c-0.093-0.039-0.173-0.092-0.241-0.158
		c-0.066-0.066-0.117-0.145-0.156-0.238c-0.038-0.09-0.057-0.191-0.057-0.301c0-0.098,0.019-0.195,0.057-0.287
		c0.039-0.092,0.09-0.172,0.156-0.238c0.068-0.07,0.148-0.127,0.241-0.168c0.093-0.043,0.192-0.063,0.299-0.063
		c0.11,0,0.211,0.02,0.306,0.063c0.095,0.041,0.176,0.098,0.245,0.168c0.068,0.066,0.124,0.146,0.164,0.238
		C106.195,183.184,106.215,183.281,106.215,183.379z M104.897,191.246v-5.861h1.089v5.861H104.897z"/>
	<path fill="#EC2024" stroke="#EC2024" stroke-width="0.1469" stroke-miterlimit="10" d="M107.996,188.598
		c0.027,0.277,0.096,0.525,0.206,0.746c0.107,0.221,0.248,0.408,0.421,0.561c0.176,0.152,0.377,0.271,0.606,0.352
		c0.23,0.084,0.483,0.125,0.758,0.125c0.749,0,1.381-0.439,1.893-1.316l0.919,0.498c-0.179,0.316-0.372,0.592-0.578,0.82
		c-0.209,0.23-0.434,0.414-0.673,0.563c-0.239,0.146-0.497,0.256-0.767,0.324c-0.271,0.072-0.557,0.105-0.858,0.105
		c-0.307,0-0.595-0.035-0.862-0.111c-0.269-0.076-0.515-0.184-0.735-0.322c-0.223-0.135-0.421-0.299-0.595-0.488
		c-0.173-0.189-0.32-0.398-0.44-0.627c-0.122-0.229-0.212-0.473-0.274-0.734c-0.063-0.258-0.095-0.525-0.095-0.801
		c0-0.27,0.032-0.531,0.095-0.787c0.063-0.258,0.152-0.498,0.274-0.725c0.12-0.227,0.268-0.434,0.44-0.621
		c0.174-0.188,0.372-0.35,0.595-0.486c0.221-0.137,0.467-0.242,0.735-0.316c0.268-0.076,0.556-0.113,0.862-0.113
		c0.467,0,0.881,0.084,1.247,0.25c0.366,0.17,0.677,0.404,0.929,0.703c0.251,0.299,0.445,0.656,0.578,1.064
		c0.134,0.412,0.199,0.857,0.199,1.338H107.996z M111.755,187.615c-0.061-0.195-0.148-0.375-0.263-0.547
		c-0.113-0.168-0.252-0.313-0.406-0.436c-0.158-0.121-0.335-0.221-0.53-0.291c-0.196-0.07-0.406-0.105-0.633-0.105
		c-0.223,0-0.437,0.035-0.637,0.105c-0.201,0.07-0.384,0.17-0.55,0.291c-0.165,0.123-0.306,0.268-0.427,0.436
		c-0.117,0.172-0.207,0.352-0.267,0.547H111.755z"/>
	<path fill="#EC2024" stroke="#EC2024" stroke-width="0.1469" stroke-miterlimit="10" d="M115.317,186.398v4.848h-1.071v-4.848
		h-0.873v-1.014h0.873v-2.121h1.071v2.121h1.221v1.014H115.317z"/>
	<path fill="#EC2024" stroke="#EC2024" stroke-width="0.1469" stroke-miterlimit="10" d="M120.877,191.246v-3.469
		c0-0.271-0.014-0.504-0.041-0.695c-0.026-0.193-0.082-0.348-0.162-0.469c-0.081-0.121-0.196-0.207-0.346-0.264
		c-0.148-0.055-0.347-0.08-0.593-0.08c-0.164,0-0.313,0.029-0.448,0.094c-0.134,0.063-0.255,0.148-0.361,0.25
		c-0.108,0.104-0.201,0.227-0.281,0.365c-0.079,0.143-0.146,0.289-0.198,0.443c-0.052,0.156-0.092,0.314-0.118,0.475
		c-0.025,0.162-0.037,0.314-0.037,0.461v2.889h-1.061v-5.861h1.061v0.598c0.219-0.227,0.451-0.406,0.699-0.533
		c0.246-0.127,0.511-0.191,0.793-0.191c0.43,0,0.783,0.061,1.063,0.184c0.28,0.123,0.501,0.293,0.665,0.516
		c0.164,0.221,0.277,0.484,0.343,0.795c0.065,0.309,0.098,0.652,0.098,1.025v3.469H120.877z"/>
	<path fill="#EC2024" stroke="#EC2024" stroke-width="0.1469" stroke-miterlimit="10" d="M127.782,191.246v-0.576
		c-0.51,0.459-1.142,0.691-1.896,0.691c-0.471,0-0.893-0.084-1.266-0.248c-0.374-0.164-0.693-0.387-0.954-0.67
		c-0.263-0.281-0.466-0.611-0.604-0.988c-0.141-0.375-0.209-0.773-0.209-1.193c0-0.424,0.068-0.816,0.209-1.184
		c0.139-0.367,0.34-0.688,0.6-0.959c0.261-0.271,0.574-0.486,0.945-0.643c0.369-0.156,0.786-0.234,1.248-0.234
		c0.755,0,1.397,0.223,1.927,0.672v-0.559h1.056v5.891H127.782z M127.827,188.213c0-0.285-0.045-0.549-0.138-0.791
		c-0.095-0.242-0.227-0.447-0.399-0.627c-0.173-0.172-0.381-0.311-0.627-0.408c-0.246-0.1-0.522-0.15-0.827-0.15
		c-0.277,0-0.533,0.055-0.769,0.166c-0.234,0.113-0.438,0.262-0.609,0.449c-0.171,0.188-0.306,0.4-0.401,0.645
		c-0.097,0.246-0.146,0.5-0.146,0.766c0,0.283,0.046,0.553,0.139,0.807c0.092,0.256,0.221,0.48,0.389,0.672
		c0.17,0.193,0.376,0.344,0.616,0.457c0.242,0.111,0.515,0.168,0.819,0.168c0.307,0,0.582-0.057,0.825-0.166
		c0.243-0.111,0.449-0.264,0.614-0.459c0.168-0.195,0.297-0.424,0.384-0.684C127.783,188.795,127.827,188.514,127.827,188.213z"/>
	<path fill="#EC2024" stroke="#EC2024" stroke-width="0.1469" stroke-miterlimit="10" d="M137.755,191.246h-1.094v-3.598
		c0-0.223-0.013-0.426-0.032-0.6c-0.025-0.176-0.068-0.324-0.141-0.443c-0.066-0.121-0.168-0.211-0.296-0.275
		c-0.131-0.061-0.299-0.094-0.513-0.094c-0.235,0-0.43,0.049-0.589,0.141c-0.158,0.092-0.285,0.217-0.382,0.379
		c-0.094,0.158-0.163,0.346-0.203,0.559c-0.04,0.217-0.061,0.445-0.061,0.689v3.242h-1.059v-3.451c0-0.236-0.015-0.445-0.041-0.635
		c-0.026-0.193-0.08-0.357-0.157-0.492c-0.077-0.139-0.183-0.244-0.321-0.32c-0.133-0.072-0.311-0.111-0.526-0.111
		c-0.137,0-0.261,0.027-0.373,0.086c-0.111,0.055-0.212,0.131-0.3,0.229c-0.089,0.096-0.165,0.209-0.229,0.336
		c-0.066,0.129-0.119,0.266-0.161,0.406c-0.043,0.143-0.073,0.291-0.094,0.441c-0.022,0.148-0.032,0.293-0.032,0.432v3.08h-1.073
		v-5.861h1.073l-0.015,0.547c0.183-0.25,0.389-0.426,0.617-0.531c0.229-0.107,0.467-0.158,0.715-0.158
		c0.349,0,0.648,0.064,0.903,0.197c0.257,0.131,0.467,0.322,0.638,0.574c0.226-0.283,0.479-0.482,0.764-0.598
		c0.283-0.117,0.586-0.174,0.906-0.174c0.291,0,0.543,0.031,0.758,0.094c0.214,0.061,0.396,0.15,0.553,0.264
		c0.154,0.115,0.278,0.248,0.377,0.402c0.1,0.154,0.177,0.324,0.232,0.51c0.061,0.182,0.099,0.375,0.12,0.58
		c0.022,0.203,0.035,0.412,0.035,0.623V191.246z"/>
	<path fill="#EC2024" stroke="#EC2024" stroke-width="0.1469" stroke-miterlimit="10" d="M141.046,192.277h-1.155l5.764-10.471
		h1.111L141.046,192.277z"/>
	<path fill="#EC2024" stroke="#EC2024" stroke-width="0.1469" stroke-miterlimit="10" d="M148.727,191.246v-8.479h1.104v7.422h1.99
		v1.057H148.727z"/>
	<path fill="#EC2024" stroke="#EC2024" stroke-width="0.1469" stroke-miterlimit="10" d="M157.061,191.246v-0.576
		c-0.51,0.459-1.142,0.691-1.895,0.691c-0.471,0-0.894-0.084-1.267-0.248c-0.372-0.164-0.692-0.387-0.954-0.67
		c-0.262-0.281-0.464-0.611-0.604-0.988c-0.14-0.375-0.208-0.773-0.208-1.193c0-0.424,0.068-0.816,0.208-1.184
		c0.141-0.367,0.34-0.688,0.6-0.959c0.261-0.271,0.576-0.486,0.946-0.643c0.371-0.156,0.785-0.234,1.249-0.234
		c0.753,0,1.396,0.223,1.925,0.672v-0.559h1.058v5.891H157.061z M157.107,188.213c0-0.285-0.047-0.549-0.14-0.791
		c-0.092-0.242-0.228-0.447-0.397-0.627c-0.174-0.172-0.383-0.311-0.628-0.408c-0.247-0.1-0.521-0.15-0.826-0.15
		c-0.276,0-0.536,0.055-0.771,0.166c-0.233,0.113-0.437,0.262-0.608,0.449c-0.171,0.188-0.305,0.4-0.4,0.645
		c-0.101,0.246-0.146,0.5-0.146,0.766c0,0.283,0.045,0.553,0.135,0.807c0.093,0.256,0.223,0.48,0.39,0.672
		c0.171,0.193,0.376,0.344,0.616,0.457c0.24,0.111,0.514,0.168,0.819,0.168c0.309,0,0.582-0.057,0.826-0.166
		c0.242-0.111,0.45-0.264,0.615-0.459c0.168-0.195,0.294-0.424,0.384-0.684C157.063,188.795,157.107,188.514,157.107,188.213z"/>
	<path fill="#EC2024" stroke="#EC2024" stroke-width="0.1469" stroke-miterlimit="10" d="M165.25,188.275
		c0,0.438-0.081,0.848-0.242,1.221c-0.16,0.375-0.381,0.701-0.664,0.979s-0.613,0.494-0.998,0.648
		c-0.385,0.16-0.796,0.238-1.245,0.238c-0.287,0-0.561-0.037-0.826-0.111c-0.264-0.072-0.51-0.176-0.738-0.313
		c-0.23-0.133-0.438-0.295-0.627-0.48c-0.188-0.188-0.35-0.395-0.483-0.621c-0.134-0.229-0.24-0.471-0.313-0.734
		c-0.072-0.262-0.107-0.529-0.107-0.811c0-0.279,0.035-0.553,0.107-0.813c0.073-0.264,0.18-0.508,0.313-0.736
		c0.134-0.227,0.295-0.436,0.483-0.623s0.396-0.35,0.627-0.484c0.229-0.135,0.475-0.238,0.739-0.313
		c0.266-0.076,0.539-0.113,0.825-0.113c0.299,0,0.582,0.035,0.854,0.105c0.27,0.07,0.521,0.174,0.757,0.305
		c0.231,0.135,0.443,0.289,0.635,0.475c0.189,0.186,0.351,0.389,0.482,0.617c0.135,0.229,0.237,0.473,0.31,0.738
		C165.212,187.713,165.25,187.986,165.25,188.275z M164.19,188.291c0-0.301-0.054-0.576-0.163-0.83
		c-0.107-0.252-0.257-0.467-0.445-0.648c-0.19-0.182-0.412-0.324-0.674-0.424c-0.258-0.102-0.538-0.152-0.838-0.152
		c-0.277,0-0.535,0.053-0.775,0.164c-0.241,0.109-0.451,0.256-0.629,0.441c-0.178,0.188-0.317,0.406-0.419,0.654
		c-0.104,0.25-0.152,0.516-0.152,0.795c0,0.275,0.052,0.537,0.154,0.783c0.104,0.25,0.245,0.467,0.424,0.656
		c0.179,0.188,0.387,0.336,0.628,0.451c0.239,0.111,0.494,0.166,0.77,0.166c0.3,0,0.58-0.053,0.838-0.158
		c0.262-0.105,0.483-0.248,0.674-0.436c0.188-0.186,0.338-0.404,0.445-0.652C164.137,188.85,164.19,188.582,164.19,188.291z"/>
	<path fill="#EC2024" stroke="#EC2024" stroke-width="0.1469" stroke-miterlimit="10" d="M169.858,189.447
		c0,0.291-0.054,0.553-0.159,0.793c-0.107,0.236-0.252,0.441-0.436,0.613c-0.186,0.17-0.4,0.305-0.644,0.396
		c-0.244,0.096-0.505,0.143-0.784,0.143c-0.254,0-0.499-0.039-0.732-0.119c-0.229-0.076-0.44-0.193-0.631-0.348
		c-0.191-0.154-0.356-0.348-0.499-0.578c-0.144-0.229-0.255-0.496-0.337-0.801l0.981-0.369c0.065,0.227,0.141,0.412,0.226,0.566
		c0.082,0.154,0.175,0.277,0.272,0.369c0.101,0.094,0.212,0.164,0.331,0.207c0.118,0.039,0.248,0.061,0.389,0.061
		c0.128,0,0.251-0.025,0.367-0.076c0.113-0.049,0.214-0.115,0.299-0.201c0.087-0.084,0.154-0.184,0.204-0.299
		c0.05-0.117,0.075-0.24,0.075-0.373c0-0.117-0.02-0.217-0.056-0.297c-0.037-0.082-0.094-0.152-0.165-0.217
		c-0.072-0.061-0.162-0.115-0.271-0.162c-0.11-0.049-0.234-0.098-0.375-0.145c-0.217-0.074-0.433-0.16-0.644-0.256
		c-0.212-0.094-0.402-0.211-0.57-0.344c-0.168-0.135-0.307-0.295-0.409-0.477c-0.105-0.184-0.157-0.404-0.157-0.656
		c0-0.248,0.048-0.473,0.144-0.674c0.097-0.205,0.224-0.377,0.385-0.52c0.159-0.141,0.345-0.252,0.556-0.328
		c0.21-0.078,0.435-0.115,0.665-0.115c0.158,0,0.316,0.02,0.472,0.063c0.157,0.043,0.313,0.113,0.466,0.209
		c0.15,0.096,0.297,0.219,0.433,0.373c0.138,0.152,0.265,0.338,0.383,0.557l-0.919,0.516c-0.08-0.143-0.157-0.262-0.231-0.354
		c-0.077-0.092-0.146-0.164-0.217-0.217c-0.066-0.051-0.137-0.088-0.205-0.105c-0.065-0.021-0.131-0.031-0.197-0.031
		c-0.084,0-0.162,0.018-0.24,0.047c-0.08,0.031-0.148,0.074-0.207,0.129c-0.059,0.053-0.105,0.115-0.141,0.186
		s-0.055,0.143-0.055,0.221c0,0.088,0.023,0.168,0.069,0.234c0.048,0.072,0.108,0.135,0.187,0.189
		c0.075,0.057,0.161,0.105,0.258,0.15s0.193,0.084,0.289,0.121c0.099,0.033,0.19,0.066,0.282,0.098
		c0.089,0.029,0.167,0.059,0.233,0.088c0.203,0.088,0.386,0.184,0.548,0.285c0.163,0.102,0.301,0.219,0.414,0.352
		c0.111,0.137,0.202,0.291,0.262,0.467C169.83,188.998,169.858,189.207,169.858,189.447z"/>
	<path fill="#EC2024" stroke="#EC2024" stroke-width="0.1469" stroke-miterlimit="10" d="M172.566,192.277h-1.156l5.767-10.471h1.11
		L172.566,192.277z"/>
	<path fill="#EC2024" stroke="#EC2024" stroke-width="0.1469" stroke-miterlimit="10" d="M186.898,190.428
		c-0.242,0.18-0.474,0.326-0.696,0.445c-0.225,0.117-0.445,0.215-0.666,0.287c-0.22,0.07-0.443,0.123-0.665,0.154
		c-0.227,0.031-0.461,0.047-0.708,0.047c-0.394,0-0.773-0.053-1.144-0.158c-0.368-0.104-0.717-0.248-1.039-0.438
		c-0.327-0.189-0.626-0.416-0.895-0.682s-0.499-0.559-0.695-0.879c-0.19-0.322-0.342-0.668-0.45-1.035
		c-0.105-0.369-0.16-0.75-0.16-1.146s0.055-0.783,0.16-1.154c0.108-0.371,0.26-0.719,0.45-1.041
		c0.196-0.324,0.427-0.617,0.698-0.885c0.271-0.266,0.568-0.494,0.895-0.686c0.324-0.191,0.672-0.34,1.045-0.443
		c0.374-0.105,0.756-0.156,1.151-0.156c0.226,0,0.449,0.014,0.669,0.047c0.223,0.029,0.446,0.082,0.672,0.154
		s0.45,0.168,0.679,0.291c0.229,0.119,0.461,0.273,0.699,0.451l-0.599,0.889c-0.211-0.162-0.413-0.291-0.604-0.389
		c-0.193-0.1-0.377-0.178-0.553-0.232c-0.177-0.055-0.347-0.094-0.512-0.109c-0.165-0.02-0.326-0.027-0.481-0.027
		c-0.296,0-0.579,0.043-0.855,0.123c-0.274,0.082-0.533,0.197-0.771,0.348c-0.238,0.146-0.459,0.326-0.657,0.531
		c-0.199,0.205-0.368,0.43-0.512,0.68c-0.143,0.248-0.253,0.512-0.331,0.791s-0.118,0.568-0.118,0.867
		c0,0.279,0.04,0.553,0.123,0.818c0.08,0.268,0.193,0.52,0.336,0.76c0.146,0.238,0.316,0.457,0.519,0.66
		c0.2,0.201,0.42,0.375,0.662,0.521c0.24,0.146,0.497,0.262,0.768,0.344c0.273,0.08,0.55,0.123,0.837,0.123
		c0.155,0,0.316-0.012,0.481-0.031s0.335-0.057,0.512-0.113c0.176-0.057,0.359-0.133,0.553-0.234
		c0.191-0.098,0.394-0.227,0.604-0.389L186.898,190.428z"/>
	<path fill="#EC2024" stroke="#EC2024" stroke-width="0.1469" stroke-miterlimit="10" d="M192.308,191.246v-0.576
		c-0.51,0.459-1.142,0.691-1.896,0.691c-0.468,0-0.893-0.084-1.266-0.248s-0.693-0.387-0.952-0.67
		c-0.265-0.281-0.466-0.611-0.607-0.988c-0.138-0.375-0.208-0.773-0.208-1.193c0-0.424,0.07-0.816,0.208-1.184
		c0.142-0.367,0.341-0.688,0.601-0.959c0.263-0.271,0.576-0.486,0.945-0.643c0.371-0.156,0.786-0.234,1.249-0.234
		c0.754,0,1.397,0.223,1.926,0.672v-0.559h1.058v5.891H192.308z M192.354,188.213c0-0.285-0.046-0.549-0.141-0.791
		c-0.091-0.242-0.226-0.447-0.396-0.627c-0.174-0.172-0.384-0.311-0.627-0.408c-0.247-0.1-0.521-0.15-0.825-0.15
		c-0.278,0-0.537,0.055-0.771,0.166c-0.235,0.113-0.438,0.262-0.609,0.449c-0.172,0.188-0.305,0.4-0.401,0.645
		c-0.098,0.246-0.146,0.5-0.146,0.766c0,0.283,0.045,0.553,0.137,0.807c0.09,0.256,0.223,0.48,0.39,0.672
		c0.169,0.193,0.374,0.344,0.614,0.457c0.243,0.111,0.516,0.168,0.82,0.168c0.309,0,0.582-0.057,0.826-0.166
		c0.242-0.111,0.449-0.264,0.616-0.459c0.165-0.195,0.292-0.424,0.383-0.684C192.31,188.795,192.354,188.514,192.354,188.213z"/>
	<path fill="#EC2024" stroke="#EC2024" stroke-width="0.1469" stroke-miterlimit="10" d="M202.281,191.246h-1.095v-3.598
		c0-0.223-0.011-0.426-0.034-0.6c-0.022-0.176-0.066-0.324-0.138-0.443c-0.067-0.121-0.169-0.211-0.297-0.275
		c-0.13-0.061-0.299-0.094-0.513-0.094c-0.235,0-0.43,0.049-0.589,0.141c-0.158,0.092-0.284,0.217-0.38,0.379
		c-0.095,0.158-0.163,0.346-0.206,0.559c-0.04,0.217-0.06,0.445-0.06,0.689v3.242h-1.059v-3.451c0-0.236-0.012-0.445-0.042-0.635
		c-0.025-0.193-0.078-0.357-0.154-0.492c-0.079-0.139-0.187-0.244-0.323-0.32c-0.133-0.072-0.311-0.111-0.527-0.111
		c-0.136,0-0.26,0.027-0.37,0.086c-0.113,0.055-0.215,0.131-0.303,0.229c-0.087,0.096-0.163,0.209-0.229,0.336
		c-0.065,0.129-0.119,0.266-0.159,0.406c-0.043,0.143-0.071,0.291-0.094,0.441c-0.021,0.148-0.032,0.293-0.032,0.432v3.08h-1.073
		v-5.861h1.073l-0.016,0.547c0.182-0.25,0.388-0.426,0.618-0.531c0.229-0.107,0.466-0.158,0.714-0.158
		c0.348,0,0.648,0.064,0.906,0.197c0.254,0.131,0.465,0.322,0.636,0.574c0.226-0.283,0.478-0.482,0.763-0.598
		c0.283-0.117,0.587-0.174,0.906-0.174c0.292,0,0.543,0.031,0.758,0.094c0.215,0.061,0.398,0.15,0.554,0.264
		c0.154,0.115,0.278,0.248,0.378,0.402c0.098,0.154,0.174,0.324,0.231,0.51c0.06,0.182,0.1,0.375,0.119,0.58
		c0.024,0.203,0.036,0.412,0.036,0.623V191.246z"/>
	<path fill="#EC2024" stroke="#EC2024" stroke-width="0.1469" stroke-miterlimit="10" d="M209.521,188.244
		c0,0.283-0.033,0.553-0.096,0.816c-0.063,0.262-0.157,0.506-0.28,0.736c-0.119,0.23-0.27,0.439-0.443,0.631
		c-0.176,0.188-0.375,0.352-0.602,0.488s-0.474,0.244-0.746,0.318c-0.271,0.074-0.562,0.111-0.872,0.111
		c-0.173,0-0.345-0.016-0.516-0.043c-0.174-0.029-0.341-0.072-0.505-0.131c-0.166-0.057-0.32-0.129-0.471-0.215
		c-0.149-0.088-0.29-0.188-0.418-0.305v0.594h-1.075v-9.568h1.075v4.176c0.135-0.113,0.275-0.209,0.428-0.289
		c0.149-0.082,0.312-0.15,0.476-0.201c0.162-0.053,0.333-0.092,0.507-0.117c0.173-0.023,0.348-0.037,0.519-0.037
		c0.466,0,0.887,0.078,1.257,0.234c0.372,0.156,0.691,0.369,0.951,0.641c0.259,0.271,0.464,0.592,0.601,0.963
		C209.45,187.416,209.521,187.814,209.521,188.244z M208.456,188.244c0-0.27-0.045-0.527-0.142-0.773
		c-0.099-0.244-0.233-0.461-0.405-0.65c-0.173-0.188-0.376-0.338-0.616-0.449c-0.238-0.109-0.496-0.166-0.774-0.166
		c-0.32,0-0.603,0.051-0.849,0.154c-0.249,0.102-0.455,0.242-0.625,0.424c-0.169,0.182-0.298,0.396-0.386,0.646
		c-0.089,0.25-0.133,0.521-0.133,0.814s0.044,0.566,0.133,0.824c0.088,0.256,0.217,0.48,0.386,0.666
		c0.17,0.189,0.373,0.34,0.616,0.449c0.242,0.111,0.515,0.164,0.82,0.164s0.581-0.055,0.826-0.166
		c0.243-0.115,0.452-0.266,0.62-0.459c0.17-0.191,0.302-0.414,0.393-0.67C208.414,188.799,208.456,188.529,208.456,188.244z"/>
	<path fill="#EC2024" stroke="#EC2024" stroke-width="0.1469" stroke-miterlimit="10" d="M216.311,188.275
		c0,0.438-0.08,0.848-0.239,1.221c-0.163,0.375-0.384,0.701-0.665,0.979c-0.282,0.277-0.616,0.494-0.999,0.648
		c-0.382,0.16-0.798,0.238-1.244,0.238c-0.29,0-0.562-0.037-0.828-0.111c-0.265-0.072-0.509-0.176-0.737-0.313
		c-0.229-0.133-0.438-0.295-0.626-0.48c-0.188-0.188-0.349-0.395-0.483-0.621c-0.135-0.229-0.239-0.471-0.313-0.734
		c-0.071-0.262-0.109-0.529-0.109-0.811c0-0.279,0.038-0.553,0.109-0.813c0.074-0.264,0.179-0.508,0.313-0.736
		c0.135-0.227,0.295-0.436,0.483-0.623s0.397-0.35,0.626-0.484s0.476-0.238,0.74-0.313c0.265-0.076,0.542-0.113,0.825-0.113
		c0.299,0,0.582,0.035,0.852,0.105c0.271,0.07,0.524,0.174,0.758,0.305c0.234,0.135,0.445,0.289,0.636,0.475
		c0.188,0.186,0.351,0.389,0.483,0.617c0.136,0.229,0.238,0.473,0.31,0.738C216.275,187.713,216.311,187.986,216.311,188.275z
		 M215.254,188.291c0-0.301-0.055-0.576-0.165-0.83c-0.108-0.252-0.256-0.467-0.446-0.648c-0.189-0.182-0.412-0.324-0.672-0.424
		c-0.258-0.102-0.537-0.152-0.838-0.152c-0.277,0-0.537,0.053-0.776,0.164c-0.241,0.109-0.45,0.256-0.628,0.441
		c-0.179,0.188-0.316,0.406-0.421,0.654c-0.101,0.25-0.151,0.516-0.151,0.795c0,0.275,0.051,0.537,0.154,0.783
		c0.104,0.25,0.244,0.467,0.423,0.656c0.181,0.188,0.39,0.336,0.63,0.451c0.238,0.111,0.495,0.166,0.77,0.166
		c0.301,0,0.58-0.053,0.838-0.158c0.26-0.105,0.482-0.248,0.672-0.436c0.19-0.186,0.338-0.404,0.446-0.652
		C215.199,188.85,215.254,188.582,215.254,188.291z"/>
	<path fill="#EC2024" stroke="#EC2024" stroke-width="0.1469" stroke-miterlimit="10" d="M221.82,191.246v-0.559
		c-0.136,0.109-0.278,0.211-0.431,0.291c-0.152,0.082-0.312,0.15-0.478,0.205c-0.163,0.057-0.331,0.096-0.499,0.123
		c-0.172,0.025-0.339,0.039-0.503,0.039c-0.47,0-0.895-0.082-1.27-0.248c-0.377-0.164-0.698-0.387-0.961-0.67
		s-0.469-0.611-0.61-0.988c-0.139-0.375-0.209-0.775-0.209-1.195c0-0.43,0.07-0.828,0.208-1.197c0.141-0.371,0.34-0.691,0.604-0.963
		c0.261-0.271,0.578-0.484,0.951-0.641c0.371-0.156,0.79-0.234,1.257-0.234c0.354,0,0.7,0.057,1.034,0.166
		c0.337,0.113,0.638,0.281,0.906,0.51v-4.207h1.062v9.568H221.82z M221.851,188.182c0-0.285-0.047-0.549-0.14-0.791
		s-0.226-0.451-0.396-0.623c-0.174-0.176-0.383-0.314-0.628-0.414c-0.243-0.1-0.517-0.148-0.823-0.148
		c-0.277,0-0.533,0.057-0.769,0.166c-0.233,0.111-0.438,0.262-0.612,0.449c-0.171,0.189-0.309,0.406-0.404,0.65
		c-0.097,0.246-0.143,0.504-0.143,0.773c0,0.285,0.044,0.555,0.135,0.809c0.092,0.256,0.225,0.479,0.393,0.67
		c0.17,0.193,0.377,0.344,0.617,0.459c0.242,0.111,0.514,0.166,0.813,0.166c0.316,0,0.592-0.055,0.833-0.166
		c0.243-0.115,0.447-0.268,0.613-0.465c0.168-0.193,0.294-0.426,0.381-0.688C221.808,188.764,221.851,188.482,221.851,188.182z"/>
	<path fill="#EC2024" stroke="#EC2024" stroke-width="0.1469" stroke-miterlimit="10" d="M225.449,183.379
		c0,0.109-0.02,0.211-0.058,0.301c-0.04,0.094-0.095,0.172-0.164,0.238s-0.151,0.119-0.245,0.158
		c-0.093,0.037-0.195,0.055-0.306,0.055c-0.108,0-0.206-0.018-0.3-0.055c-0.092-0.039-0.172-0.092-0.239-0.158
		c-0.065-0.066-0.117-0.145-0.157-0.238c-0.037-0.09-0.057-0.191-0.057-0.301c0-0.098,0.02-0.195,0.057-0.287
		c0.04-0.092,0.092-0.172,0.157-0.238c0.067-0.07,0.147-0.127,0.239-0.168c0.094-0.043,0.191-0.063,0.3-0.063
		c0.11,0,0.213,0.02,0.306,0.063c0.094,0.041,0.176,0.098,0.245,0.168c0.069,0.066,0.124,0.146,0.164,0.238
		C225.43,183.184,225.449,183.281,225.449,183.379z M224.133,191.246v-5.861h1.088v5.861H224.133z"/>
	<path fill="#EC2024" stroke="#EC2024" stroke-width="0.1469" stroke-miterlimit="10" d="M231.083,191.246v-0.576
		c-0.508,0.459-1.142,0.691-1.894,0.691c-0.471,0-0.894-0.084-1.266-0.248c-0.374-0.164-0.694-0.387-0.954-0.67
		c-0.265-0.281-0.467-0.611-0.606-0.988c-0.139-0.375-0.209-0.773-0.209-1.193c0-0.424,0.07-0.816,0.209-1.184
		c0.14-0.367,0.341-0.688,0.602-0.959c0.26-0.271,0.576-0.486,0.944-0.643c0.37-0.156,0.787-0.234,1.249-0.234
		c0.754,0,1.397,0.223,1.925,0.672v-0.559h1.057v5.891H231.083z M231.131,188.213c0-0.285-0.048-0.549-0.141-0.791
		s-0.225-0.447-0.397-0.627c-0.173-0.172-0.383-0.311-0.626-0.408c-0.247-0.1-0.523-0.15-0.828-0.15
		c-0.275,0-0.534,0.055-0.77,0.166c-0.235,0.113-0.438,0.262-0.609,0.449c-0.17,0.188-0.305,0.4-0.4,0.645
		c-0.099,0.246-0.145,0.5-0.145,0.766c0,0.283,0.044,0.553,0.135,0.807c0.092,0.256,0.223,0.48,0.391,0.672
		c0.169,0.193,0.374,0.344,0.614,0.457c0.244,0.111,0.514,0.168,0.821,0.168c0.306,0,0.582-0.057,0.826-0.166
		c0.241-0.111,0.448-0.264,0.613-0.459c0.168-0.195,0.294-0.424,0.383-0.684C231.086,188.795,231.131,188.514,231.131,188.213z"/>
</g>
</svg>
