<?xml version="1.0" encoding="utf-8"?>
<!-- Generator: Adobe Illustrator 16.0.0, SVG Export Plug-In . SVG Version: 6.00 Build 0)  -->
<!DOCTYPE svg PUBLIC "-//W3C//DTD SVG 1.1//EN" "http://www.w3.org/Graphics/SVG/1.1/DTD/svg11.dtd">
<svg version="1.1" id="Layer_1" xmlns="http://www.w3.org/2000/svg" xmlns:xlink="http://www.w3.org/1999/xlink" x="0px" y="0px"
	 width="1574.377px" height="395.457px" viewBox="0 0 1574.377 395.457" enable-background="new 0 0 1574.377 395.457"
	 xml:space="preserve">
<rect x="-61.183" y="-39.688" display="none" fill="#151143" width="1699.715" height="642.139"/>
<g>
	<path fill="#2B3990" d="M1249.275,332.562c3.217,0,3.223-5,0-5C1246.059,327.562,1246.053,332.562,1249.275,332.562"/>
	<path fill="#0F1031" d="M595.375,344.807c-2.385,13.781-4.8,26.202-6.576,38.714c-0.79,5.565-3.127,7.757-8.678,7.458
		c-5.979-0.322-11.992,0.059-17.981-0.149c-4.678-0.163-7.066-2.396-6.117-7.532c4.833-26.157,9.983-52.265,14.161-78.528
		c2.458-15.455,5.982-30.718,7.921-46.244c0.46-3.685,1.984-5.021,5.551-4.951c6.573,0.131,13.152-0.047,19.727,0.033
		c6.52,0.08,7.979,1.82,6.875,8.142c-1.694,9.695-3.505,19.37-5.199,29.064c-0.243,1.392-1.427,3.293,0.553,4.106
		c1.785,0.734,2.642-1.118,3.543-2.317c8.531-11.372,17.112-22.709,25.523-34.169c2.357-3.213,4.974-5.084,9.159-4.903
		c5.715,0.248,11.449,0.062,18.22,0.062c-72.141-30.706-103.631-84.014-86.123-159.318c13.553-58.296,60.424-89.012,109.531-93.565
		c71.826-6.659,116.512,34.585,134.798,80.068c19.177,47.697,10.311,115.924-50.896,157.841c9.853-2.139,17.821-5.749,25.92-8.815
		c44.872-16.988,85.546-41.337,122.51-71.73c14.741-12.12,28.878-25.089,41.408-39.629c4.925-5.716,4.823-6.157-1.848-9.477
		c-1.549-0.771-4.419-0.864-3.971-3.452c0.456-2.631,2.878-3.41,5.365-3.497c1.933-0.067,3.866-0.062,5.8-0.076
		c6.676-0.046,10.927-3.077,12.723-9.259c1.076-3.704-1.572-4.928-4.327-5.437c-5.882-1.087-11.823-1.858-17.743-2.741
		c-2.059-0.307-4.863-0.027-4.947-2.843c-0.086-2.823,2.641-2.867,4.75-3.034c4.815-0.383,9.634-0.856,14.459-0.975
		c4.354-0.106,8.313-0.259,11.056-4.618c1.457-2.315,3.903-2.773,4.967,0.84c0.351,1.193-0.332,2.896,1.658,3.188
		c2.069,0.304,3.107-1.036,4.141-2.55c2.396-3.512,4.646-7.17,7.436-10.349c2.213-2.522,5.403-6.091,8.704-3.767
		c3.183,2.24,1.34,6.581-0.334,9.579c-2.061,3.686-5.019,6.865-7.143,10.522c-1.246,2.144-3.249,5.347,2.307,5.079
		c2.406-0.117,3.742,2.594,2.633,4.117c-5.954,8.169-0.067,15.57,1.096,23.232c0.468,3.083,3.566,7.159-0.396,8.729
		c-3.766,1.491-4.025-3.65-5.423-6.05c-2.912-5.003-5.256-10.307-8.966-14.871c-2.027-2.492-3.088-3.104-5.754-0.469
		c-4.904,4.846-6.385,9.847-3.061,16.081c0.714,1.34,1.137,2.897,1.389,4.405c0.332,1.987,0.052,4.004-2.025,4.971
		c-2.013,0.938-3.142-0.623-4.36-1.913c-4.846-5.124-4.642-4.91-9.453,0.511c-14.274,16.082-29.89,30.837-46.617,44.294
		c-39.869,32.076-84.453,55.633-133.037,71.48c-16.875,5.505-34.165,9.725-51.669,13.527c7.345,0,14.692,0.101,22.035-0.043
		c3.719-0.072,5.037,1.122,5.85,5.124c3.565,17.548,0.446,35.516,3.863,53.059c1.047,5.378-1.157,11.15,1.618,17.636
		c1.063-4.507,2.213-8.035,2.695-11.651c2.677-20.067,7.823-39.725,9.871-59.89c0.288-2.838,1.677-4.179,4.457-4.199
		c6.771-0.047,13.539-0.084,20.309-0.132c3.36-0.024,4.968,1.848,5.159,4.995c0.116,1.92,0.272,3.955-0.207,5.775
		c-4.684,17.764-6.341,36.088-10.107,54.03c-2.888,13.755-4.378,27.799-7.039,41.608c-1.605,8.335-3.304,16.641-4.286,25.071
		c-0.533,4.581-2.984,6.13-7.449,6.02c-9.085-0.228-18.187-0.32-27.267-0.009c-5.072,0.176-6.381-1.535-6.644-6.63
		c-1.212-23.468-2.995-46.906-5.227-70.456c-0.906,8.448-3.286,16.558-4.679,24.878c-2.549,15.219-5.342,30.397-7.779,45.633
		c-0.759,4.745-3.032,6.705-7.747,6.529c-5.022-0.187-10.057,0.04-15.084-0.058c-6.46-0.126-8.386-2.281-7.363-8.677
		c1.344-8.394,3.013-16.736,4.502-25.107c3.04-17.101,5.77-34.264,9.163-51.294c2.865-14.382,4.928-28.883,7.4-43.322
		c0.407-2.378,1.584-5.192-1.916-6.338c-3.578-1.171-10.096,1.43-10.718,4.399c-1.342,6.406-2.534,12.85-3.563,19.315
		c-4.885,30.701-9.838,61.389-16.116,91.847c-1.009,4.897-1.908,9.83-2.545,14.788c-0.404,3.137-1.982,4.431-4.943,4.428
		c-6.962-0.007-13.925,0.016-20.887-0.058c-4.313-0.045-6.163-2.244-6.045-6.635c0.201-7.427,3.13-14.264,4.234-21.513
		c2.675-17.562,5.816-35.055,8.923-52.549c2.629-14.801,5.501-29.558,8.19-44.348c0.378-2.076,0.565-4.247,0.421-6.345
		c-0.21-3.051-1.661-4.239-5.161-4.399c-4.04-0.184-3.317,1.669-2.96,3.987c0.172,1.115,0.129,1.903-0.865,2.981
		c-16.623,18.029-30.136,38.532-45.578,57.507c-1.954,2.401-1.852,4.87-0.705,7.595c6.062,14.413,11.539,29.069,18.254,43.211
		c2.064,4.347,3.752,8.895,5.293,13.459c1.406,4.166-0.05,6.953-4.771,7.023c-7.347,0.109-14.698-0.026-22.047,0.03
		c-3.601,0.026-5.058-2.241-6.071-5.178c-4.29-12.443-10.13-24.237-15.273-36.323C597.311,348.227,596.62,347.141,595.375,344.807
		 M650.174,127.164c-1.304,30.391,23.127,51.609,48.542,51.982c27.985,0.411,50.681-21.409,51.451-48.164
		c0.914-31.78-23.152-51.714-49.033-53.038C675.104,76.612,648.506,101.923,650.174,127.164"/>
	<path fill="#0F1031" d="M495.641,255.209c-29.951-5-53.05-20.116-75.264-37.014c-4.126-3.139-8.271-6.256-12.473-9.293
		c-3.169-2.29-5.142-0.999-5.92,3.654c-1.816,10.852-3.833,21.674-5.448,32.556c-0.749,5.049-3.219,6.653-8.183,6.628
		c-33.65-0.164-67.302-0.08-100.953-0.127c-6.646-0.009-11.088-4.608-10.013-11.138c2.914-17.69,6.314-35.3,9.375-52.968
		c3.1-17.888,5.87-35.835,9.06-53.707c5.623-31.505,11.726-62.927,17.053-94.481c1.828-10.83,5.114-21.442,5.382-32.526
		c0.122-5.035,3.22-5.828,7.425-5.808c18.953,0.091,37.906,0.032,56.859,0.026c17.986-0.005,36.011-0.746,53.947,0.191
		c17.225,0.901,34.437,2.412,51.467,6.072c18.165,3.905,33.896,11.826,46.125,25.518c12.93,14.479,20.015,31.756,21.443,51.418
		c2.335,32.146-8.171,59.749-29.231,83.42c-17.481,19.647-38.568,34.058-64.561,40.336c-1.176,0.284-2.371,0.602-2.739,1.818
		c-0.557,1.843,1.199,2.175,2.246,2.87c12.428,8.246,26.475,12.314,40.756,15.793c3.363,0.819,6.784,1.548,10.003,2.778
		c5.249,2.006,7.591,8.989,5.038,16.054c-1.23,3.404-0.697,3.72,2.739,4.571c8.266,2.046,16.948,0.811,25.045,3.822
		c13.235,4.922,20.164,11.792,15.785,27.669c-2.497,9.053-2.47,18.771-4.442,28.006c-3.748,17.545-6.777,35.199-9.102,52.969
		c-2.175,16.619-14.482,24.532-28.356,26.044c-16.577,1.807-33.514,2.851-50.123-1.57c-8.062-2.146-13.599-8.609-13.748-17.001
		c-0.151-8.555,2.056-16.822,3.254-25.199c1.661-11.612,3.971-23.132,6.017-34.689c2.152-12.16,3.763-24.45,6.638-36.438
		C473.568,263.676,482.781,258.162,495.641,255.209 M451.299,28.785c-4.06,0-8.119,0.018-12.179-0.006
		c-2.734-0.016-4.225,1.183-4.72,3.987c-2.84,16.096-5.808,32.172-8.707,48.254c-4.653,25.811-8.428,51.784-13.95,77.438
		c-2.216,10.296-0.621,18.871,8.906,24.993c3.704,2.38,6.745,6.227,11.749,5.079c8.988-2.061,18.333-2.4,27.073-5.605
		c19.949-7.315,37.296-18.398,50.869-35.012c18.292-22.391,24.045-47.692,16.32-75.451c-3.847-13.824-13.089-24.739-25.393-31.841
		C486,31.81,468.607,30.051,451.299,28.785 M496.903,374.319c12.2-0.017,15.925-3.372,17.762-13.931
		c3.038-17.469,6.26-34.906,9.472-52.345c1.43-7.767,3.101-15.489,4.526-23.257c1.717-9.356-0.158-13.743-7.243-13.708
		c-11.493,0.057-19.528,0.603-19.885,14.746c-0.02,0.766-0.231,1.527-0.367,2.288c-4.665,26.009-9.267,52.029-14.055,78.015
		c-0.895,4.857,1.666,6.837,5.522,7.914C494.449,374.547,496.473,374.298,496.903,374.319"/>
	<path fill="#0F1031" d="M106.873,1.01c10.827,0.003,21.674,0.418,32.476-0.091c17.794-0.84,35.448,1.231,53.054,2.709
		c22.003,1.848,42.755,8.438,59.277,24.272c10.019,9.601,17.748,20.714,22.172,34.123c6.038,18.301,6.139,36.462,1.664,55.165
		c-6.004,25.093-19.363,45.623-37.945,62.719c-11.202,10.307-24.571,17.688-38.868,23.444c-19.81,7.976-40.302,9.889-61.323,8.874
		c-3.943-0.19-8.534-3.217-11.638-0.124c-2.771,2.761-1.676,7.733-2.649,11.631c-1.865,7.476-3.303,14.972-3.674,22.694
		c-0.221,4.622-3.583,5.254-7.453,5.239c-18.753-0.071-37.507-0.029-56.261-0.033c-15.273-0.004-30.547,0.034-45.82-0.044
		c-7.331-0.037-11.047-5.586-9.561-12.776c3.241-15.679,5.591-31.552,9.158-47.151c4.218-18.451,6.534-37.235,10.772-55.694
		c3.532-15.388,5.162-31.211,7.717-46.828c4.451-27.213,9.169-54.385,13.29-81.648c0.854-5.648,3.746-6.486,8.192-6.485
		C68.592,1.01,87.732,1.006,106.873,1.01 M149.063,186.719c8.877,0,17.648-0.405,26.424-2.279
		c17.662-3.771,32.819-12.247,46.085-24.067c15.887-14.156,25.795-31.776,30.031-52.862c4.982-24.804-2.78-45.451-20.984-61.438
		c-13.365-11.737-30.389-16.885-48.466-17.261c-4.801-0.1-9.484-0.132-14.277-1.537c-7.436-2.178-10.375,0.113-11.738,7.441
		c-2.326,12.5-4.836,24.967-7.02,37.491c-4.439,25.458-8.387,51-13.514,76.337c-1.863,9.206-3.512,18.467-4.858,27.761
		c-1.155,7.975,0.527,9.676,8.473,9.979C142.501,186.41,145.783,186.573,149.063,186.719"/>
	<path fill="#0F1031" d="M283.091,390.919c-11.589,0-19.318,0.079-27.045-0.025c-6.073-0.083-7.94-1.968-7.075-7.728
		c1.332-8.874,3.081-17.686,4.629-26.528c1.827-10.432,3.434-20.906,5.479-31.294c4.13-20.977,7.402-42.095,10.851-63.186
		c1.302-7.963,1.863-8.497,9.636-8.179c14.089,0.577,28.196-1.414,42.242,0.138c8.369,0.925,16.665,2.12,23.853,7.614
		c4.746,3.627,7.431,7.888,7.322,13.552c-0.234,12.22-2.948,24.09-6.294,35.779c-1.043,3.642-2.708,7.144-6.537,9.16
		c-1.896,0.999-3.386,3.182-1.359,5.299c5.576,5.824,3.351,12.758,2.601,19.222c-0.996,8.577-2.739,17.088-4.55,25.544
		c-1.848,8.634-8.486,12.977-15.961,16.137C307.48,392.089,293.298,391.117,283.091,390.919 M300.287,311.638
		c9.433-0.586,16.341-4.199,17.08-10.603c0.748-6.488,2.006-12.916,3.017-19.375c0.512-3.27,0.132-7.142-3.014-8.011
		c-5.028-1.389-10.161-3.972-15.621-2.337c-1.956,0.585-1.432,2.904-1.695,4.578c-1.555,9.886-2.94,19.805-4.8,29.634
		C294.14,311.409,294.186,311.823,300.287,311.638 M291.648,372.342c7.657-0.102,12.291-2.418,13.506-7.553
		c1.726-7.304,3.222-14.691,4.257-22.12c0.905-6.505-1.284-8.692-8.169-9.549c-8.547-1.065-11.53,0.485-12.628,6.943
		c-1.387,8.155-2.67,16.332-3.787,24.528C283.764,372.389,283.918,372.445,291.648,372.342"/>
	<path fill="#0F1031" d="M392.655,391.151c-5.993,0-11.986,0.003-17.979,0c-9.086-0.005-16.244-4.227-22.626-10.242
		c-1.871-1.763-2.491-3.852-2.232-6.284c2.079-19.551,5.252-38.918,9.238-58.175c2.225-10.753,4.287-21.594,5.44-32.5
		c1.478-13.982,6.482-24.415,24.735-28.316c17.787-3.802,35.515-4.968,52.85,0.99c12.602,4.332,18.048,11.805,14.05,26.376
		c-2.788,10.162-3.548,20.871-5.392,31.304c-3.388,19.176-6.608,38.389-10.527,57.458c-1.464,7.125-6.988,11.397-13.546,14.834
		C415.738,392.323,404.158,391.015,392.655,391.151 M393.808,374.31c9.037,1.389,16.161-5.499,16.923-14.077
		c1.549-17.456,6.298-34.396,8.721-51.722c1.389-9.928,3.972-19.661,4.771-29.698c0.225-2.821-0.223-4.819-2.814-6.29
		c-9.727-5.526-22.879,0.237-24.755,11.066c-4.538,26.201-8.602,52.492-13.64,78.595
		C381.469,370.186,385.146,375.418,393.808,374.31"/>
	<path fill="#0F1031" d="M881.883,318.617c6.189,0.006,12.378,0.009,18.566,0.005c4.465-0.002,6.407,2.109,5.613,6.599
		c-2.422,13.697-4.827,27.398-7.234,41.098c-0.967,5.504-2.155,10.983-2.79,16.525c-0.35,3.054-1.92,4.635-4.483,5.309
		c-4.833,1.271-9.531,3.384-14.688,2.996c-5.678-0.428-11.127,2.221-16.581,1.848c-13.007-0.889-26.149-1.038-38.913-4.151
		c-8.364-2.041-14.071-9.576-13.648-18.092c0.908-18.346,5.271-36.195,8.162-54.254c1.984-12.384,4.707-24.632,6.338-37.092
		c1.444-11.031,7.5-18.358,18.398-22.373c10.229-3.768,20.96-4.403,31.293-4.753c10.652-0.36,21.909,0.988,31.949,6.254
		c7.499,3.933,11.863,10.552,10.342,18.847c-1.142,6.231-1.317,12.633-3.273,18.767c-0.927,2.903-2.174,4.269-5.154,4.248
		c-6.962-0.048-13.926,0.066-20.887-0.045c-4.839-0.077-6.338-2.767-5.479-7.347c0.743-3.969,1.293-7.986,1.693-12.006
		c0.674-6.766-0.673-8.527-7.294-10.115c-9.09-2.18-17.754,3.819-19.398,12.955c-3.932,21.84-8.109,43.635-12.169,65.452
		c-1.021,5.489-1.805,11.029-3.033,16.47c-0.523,2.319,0.398,3.667,1.759,5.114c2.58,2.743,5.813,3.432,9.458,3.469
		c18.859,0.189,13.476,0.026,17.195-14.609c1.356-5.336,1.626-11.072,2.834-16.537c0.815-3.689,0.072-5.268-4.09-5.379
		c-10.591-0.282-11.054-1.18-9.231-11.984c0.842-4.986,2.453-8.083,8.517-7.359C870.992,319.115,876.468,318.61,881.883,318.617"/>
	<path fill="#FFF200" d="M1014.586,358.119l19.477,12.476c-5.146,8.078-11.758,14.241-19.836,18.489s-17.232,6.372-27.464,6.372
		c-14.241,0-25.387-4.637-33.434-13.911c-8.048-9.274-12.071-22.169-12.071-38.684c0-11.668,1.525-22.856,4.577-33.568
		c3.052-10.71,7.329-19.925,12.835-27.644c5.444-7.539,11.906-13.252,19.387-17.142c7.479-3.889,15.736-5.834,24.771-5.834
		c11.848,0,21.496,3.141,28.944,9.424c7.451,6.282,12.192,15.258,14.228,26.926l-22.08,3.679
		c-1.018-6.042-3.426-10.739-7.225-14.091c-3.801-3.35-8.692-5.026-14.675-5.026c-4.847,0-9.334,1.272-13.463,3.815
		c-4.129,2.544-7.6,6.178-10.411,10.905c-3.77,6.403-6.792,14.241-9.065,23.515c-2.274,9.276-3.41,18.669-3.41,28.182
		c0,8.796,2.094,15.738,6.282,20.823c4.188,5.086,9.873,7.629,17.054,7.629c5.385,0,10.306-1.42,14.764-4.263
		C1008.228,367.349,1011.833,363.325,1014.586,358.119"/>
	<polygon fill="#FFF200" points="1045.462,393.034 1075.26,260.289 1147.511,260.289 1142.664,281.291 1095.813,281.291 
		1088.633,313.422 1127.676,313.422 1123.008,334.246 1083.876,334.246 1075.439,371.672 1135.395,371.672 1130.548,393.034 	"/>
	<polygon fill="#FFF200" points="1144.19,393.034 1173.988,260.289 1199.747,260.289 1229.814,352.554 1250.278,260.289 
		1274.332,260.289 1244.354,393.034 1221.198,393.034 1189.785,296.37 1168.244,393.034 	"/>
	<polygon fill="#FFF200" points="1292.193,393.034 1317.145,282.008 1284.834,282.008 1289.77,260.289 1376.562,260.289 
		1371.715,282.008 1343.083,282.008 1317.862,393.034 	"/>
	<polygon fill="#FFF200" points="1365.521,393.034 1395.319,260.289 1467.57,260.289 1462.724,281.291 1415.873,281.291 
		1408.692,313.422 1447.735,313.422 1443.067,334.246 1403.936,334.246 1395.499,371.672 1455.454,371.672 1450.607,393.034 	"/>
	<path fill="#FFF200" d="M1464.25,393.033l29.798-132.745h32.849c16.036,0,27.959,2.903,35.768,8.706
		c7.809,5.805,11.713,14.691,11.713,26.657c0,9.993-2.769,18.325-8.303,24.996c-5.535,6.673-13.299,10.995-23.291,12.97
		l20.913,59.416h-25.761l-18.577-55.466h-17.412l-12.297,55.466H1464.25z M1506.164,317.102h16.515c8.915,0,15.721-1.75,20.419-5.25
		c4.696-3.501,7.045-8.541,7.045-15.124c0-5.624-1.69-9.752-5.07-12.386c-3.381-2.632-8.633-3.949-15.752-3.949h-14.898
		L1506.164,317.102z"/>
</g>
<g display="none">
	<defs>
		<rect id="SVGID_1_" x="1141.563" y="-39.438" width="444.673" height="259.087"/>
	</defs>
	<clipPath id="SVGID_2_" display="inline">
		<use xlink:href="#SVGID_1_"  overflow="visible"/>
	</clipPath>
	<path display="inline" clip-path="url(#SVGID_2_)" fill="#FFF200" d="M1536.395,219.313h-344.989
		c-27.526,0-49.841-22.315-49.841-49.842V-52.616c0-27.527,22.314-49.842,49.841-49.842h344.989
		c27.527,0,49.843,22.315,49.843,49.842v222.087C1586.237,196.999,1563.922,219.313,1536.395,219.313"/>
</g>
<g display="none">
	<defs>
		<rect id="SVGID_3_" x="-58.721" y="-39.938" width="1700.79" height="850.39"/>
	</defs>
	<clipPath id="SVGID_4_" display="inline">
		<use xlink:href="#SVGID_3_"  overflow="visible"/>
	</clipPath>
	<polygon display="inline" clip-path="url(#SVGID_4_)" fill="#151143" points="1209.917,11.133 1209.917,34 1205.282,34 
		1205.282,11.133 1196.822,11.133 1196.822,7.056 1218.433,7.056 1218.433,11.133 	"/>
	<path display="inline" clip-path="url(#SVGID_4_)" fill="#151143" d="M1245.682,20.458c0,3.965-1.125,7.297-3.378,9.996
		c-2.4,2.792-5.547,4.188-9.437,4.188c-3.909,0-7.036-1.396-9.381-4.188c-2.253-2.699-3.379-6.031-3.379-9.996
		c0-1.991,0.283-3.797,0.852-5.417c0.567-1.619,1.43-3.099,2.583-4.439c1.173-1.396,2.54-2.438,4.104-3.127
		c1.563-0.688,3.304-1.033,5.221-1.033c3.909,0,7.055,1.387,9.437,4.16c1.117,1.34,1.96,2.82,2.527,4.439
		C1245.398,16.661,1245.682,18.467,1245.682,20.458 M1240.992,20.458c0-2.829-0.633-5.156-1.898-6.98
		c-1.489-2.14-3.565-3.211-6.227-3.211c-2.699,0-4.756,1.052-6.171,3.155c-1.304,1.862-1.954,4.207-1.954,7.036
		c0,2.885,0.65,5.268,1.954,7.148c1.452,2.122,3.509,3.183,6.171,3.183c2.643,0,4.719-1.061,6.227-3.183
		C1240.359,25.689,1240.992,23.306,1240.992,20.458"/>
	<path display="inline" clip-path="url(#SVGID_4_)" fill="#151143" d="M1270.77,28.778c-0.513,1.284-1.248,2.364-2.206,3.239
		c-0.959,0.875-2.122,1.531-3.49,1.968c-1.368,0.438-2.899,0.656-4.593,0.656c-3.388,0-6.013-0.865-7.873-2.596
		c-2.029-1.824-3.044-4.412-3.044-7.762V7.057h4.635v15.691c0,1.229,0.074,2.276,0.224,3.141c0.148,0.866,0.381,1.569,0.698,2.108
		c0.931,1.713,2.716,2.569,5.36,2.569c2.699,0,4.514-0.856,5.444-2.569c0.614-1.079,0.922-2.829,0.922-5.249V7.057h4.69v17.227
		C1271.537,25.997,1271.281,27.495,1270.77,28.778"/>
	<path display="inline" clip-path="url(#SVGID_4_)" fill="#151143" d="M1294.349,34c-0.447-0.744-0.67-2.057-0.67-3.937
		c0-2.606-0.345-4.439-1.033-5.5c-0.819-1.098-2.253-1.648-4.3-1.648h-6.925V34h-4.69V7.056h12.927c5.789,0,8.684,2.467,8.684,7.399
		c0,3.37-1.479,5.594-4.439,6.674v0.055c2.662,0.522,3.993,2.43,3.993,5.724c0,3.667,0.475,6.031,1.424,7.092H1294.349z
		 M1293.679,15.014c0-2.736-1.527-4.104-4.579-4.104h-7.679v8.348h7.734C1292.171,19.258,1293.679,17.844,1293.679,15.014"/>
	<polygon display="inline" clip-path="url(#SVGID_4_)" fill="#151143" points="1342.147,34 1337.345,34 1332.04,13.479 
		1331.984,13.479 1326.596,34 1321.682,34 1314.758,7.057 1319.504,7.057 1324.251,27.718 1324.307,27.718 1329.695,7.057 
		1334.497,7.057 1339.635,27.718 1339.69,27.718 1344.66,7.057 1349.407,7.057 	"/>
	<polygon display="inline" clip-path="url(#SVGID_4_)" fill="#151143" points="1369.174,34 1369.174,21.827 1357.001,21.827 
		1357.001,34 1352.311,34 1352.311,7.057 1357.001,7.057 1357.001,17.75 1369.174,17.75 1369.174,7.057 1373.865,7.057 1373.865,34 
			"/>
	<path display="inline" clip-path="url(#SVGID_4_)" fill="#151143" d="M1403.627,20.458c0,3.965-1.125,7.297-3.378,9.996
		c-2.4,2.792-5.547,4.188-9.437,4.188c-3.909,0-7.036-1.396-9.381-4.188c-2.253-2.699-3.379-6.031-3.379-9.996
		c0-1.991,0.283-3.797,0.852-5.417c0.567-1.619,1.43-3.099,2.583-4.439c1.173-1.396,2.54-2.438,4.104-3.127
		c1.563-0.688,3.304-1.033,5.221-1.033c3.909,0,7.055,1.387,9.437,4.16c1.117,1.34,1.96,2.82,2.527,4.439
		C1403.344,16.661,1403.627,18.467,1403.627,20.458 M1398.938,20.458c0-2.829-0.633-5.156-1.898-6.98
		c-1.489-2.14-3.565-3.211-6.227-3.211c-2.699,0-4.756,1.052-6.171,3.155c-1.304,1.862-1.954,4.207-1.954,7.036
		c0,2.885,0.65,5.268,1.954,7.148c1.452,2.122,3.509,3.183,6.171,3.183c2.643,0,4.719-1.061,6.227-3.183
		C1398.305,25.689,1398.938,23.306,1398.938,20.458"/>
	<polygon display="inline" clip-path="url(#SVGID_4_)" fill="#151143" points="1407.788,34 1407.788,7.057 1412.479,7.057 
		1412.479,29.952 1426.048,29.952 1426.048,34 	"/>
	<path display="inline" clip-path="url(#SVGID_4_)" fill="#151143" d="M1449.307,26.154c0,2.83-1.108,5.007-3.323,6.533
		c-1.862,1.303-4.28,1.955-7.259,1.955c-3.258,0-5.845-0.763-7.762-2.29c-2.122-1.675-3.211-4.094-3.267-7.259h4.578
		c0,3.797,2.271,5.696,6.813,5.696c1.898,0,3.322-0.419,4.271-1.257c0.838-0.707,1.256-1.637,1.256-2.792
		c0-1.507-0.763-2.633-2.289-3.378c-0.429-0.205-1.07-0.428-1.927-0.67s-1.926-0.493-3.211-0.754c-2.755-0.596-4.7-1.265-5.835-2.01
		c-1.787-1.229-2.681-3.099-2.681-5.612c0-2.55,1.023-4.551,3.071-6.003c1.769-1.247,3.983-1.871,6.646-1.871
		c2.866,0,5.249,0.726,7.147,2.178c2.028,1.545,3.043,3.658,3.043,6.338h-4.69c-0.187-3.127-2.149-4.691-5.892-4.691
		c-1.172,0-2.224,0.326-3.154,0.977c-1.024,0.671-1.536,1.583-1.536,2.737c0,1.47,0.801,2.522,2.401,3.155
		c0.261,0.111,0.842,0.279,1.744,0.502c0.903,0.224,2.109,0.494,3.616,0.81c1.285,0.261,2.401,0.572,3.351,0.935
		c0.948,0.363,1.722,0.778,2.317,1.243C1448.45,21.892,1449.307,23.735,1449.307,26.154"/>
	<path display="inline" clip-path="url(#SVGID_4_)" fill="#151143" d="M1470.693,34l-2.513-7.147h-10.582L1455.197,34h-4.914
		l10.163-26.943h4.97L1475.607,34H1470.693z M1462.959,11.635h-0.111l-4.049,11.671h8.182L1462.959,11.635z"/>
	<polygon display="inline" clip-path="url(#SVGID_4_)" fill="#151143" points="1478.12,34 1478.12,7.057 1482.811,7.057 
		1482.811,29.952 1496.38,29.952 1496.38,34 	"/>
	<polygon display="inline" clip-path="url(#SVGID_4_)" fill="#151143" points="1499.563,34 1499.563,7.057 1519.024,7.057 
		1519.024,11.133 1504.254,11.133 1504.254,18.113 1517.711,18.113 1517.711,22.05 1504.254,22.05 1504.254,29.952 1519.024,29.952 
		1519.024,34 	"/>
	<path display="inline" clip-path="url(#SVGID_4_)" fill="#151143" d="M1540.858,34c-0.447-0.744-0.67-2.057-0.67-3.937
		c0-2.606-0.345-4.439-1.033-5.5c-0.819-1.098-2.253-1.648-4.3-1.648h-6.925V34h-4.69V7.056h12.927c5.789,0,8.684,2.467,8.684,7.399
		c0,3.37-1.479,5.594-4.439,6.674v0.055c2.662,0.522,3.993,2.43,3.993,5.724c0,3.667,0.475,6.031,1.424,7.092H1540.858z
		 M1540.188,15.014c0-2.736-1.527-4.104-4.579-4.104h-7.679v8.348h7.734C1538.681,19.258,1540.188,17.844,1540.188,15.014"/>
	<polygon display="inline" clip-path="url(#SVGID_4_)" fill="#151143" points="1170.898,107 1170.898,80.057 1175.588,80.057 
		1175.588,102.952 1189.158,102.952 1189.158,107 	"/>
	<path display="inline" clip-path="url(#SVGID_4_)" fill="#151143" d="M1209.68,107l-2.512-7.147h-10.582l-2.401,7.147h-4.914
		l10.163-26.943h4.97l10.19,26.943H1209.68z M1201.946,84.635h-0.111l-4.049,11.671h8.181L1201.946,84.635z"/>
	<polygon display="inline" clip-path="url(#SVGID_4_)" fill="#151143" points="1233.637,107 1221.463,87.093 1221.352,87.093 
		1221.352,107 1216.94,107 1216.94,80.057 1221.91,80.057 1234.111,99.964 1234.167,99.964 1234.167,80.057 1238.606,80.057 
		1238.606,107 	"/>
	<path display="inline" clip-path="url(#SVGID_4_)" fill="#151143" d="M1266.861,93.458c0,4.021-0.912,7.222-2.736,9.604
		c-2.065,2.625-5.035,3.938-8.906,3.938h-11.112V80.056h11.112c3.871,0,6.841,1.303,8.906,3.909
		C1265.949,86.292,1266.861,89.457,1266.861,93.458 M1262.255,93.458c0-1.526-0.146-2.848-0.433-3.965
		c-0.289-1.117-0.703-2.047-1.243-2.792c-1.396-1.861-3.778-2.792-7.147-2.792h-4.635v19.265h4.635c3.351,0,5.733-0.939,7.147-2.82
		c0.54-0.781,0.954-1.74,1.243-2.875C1262.109,96.343,1262.255,95.003,1262.255,93.458"/>
	<path display="inline" clip-path="url(#SVGID_4_)" fill="#151143" d="M1301.985,107l-2.289-2.903
		c-1.769,2.271-4.3,3.406-7.595,3.406c-1.248,0-2.383-0.181-3.406-0.545c-1.024-0.362-1.903-0.888-2.639-1.577
		c-0.735-0.688-1.303-1.526-1.703-2.513c-0.4-0.986-0.601-2.103-0.601-3.351c0-3.107,2.019-5.723,6.06-7.845
		c-1.75-2.215-2.625-4.16-2.625-5.835c0-0.968,0.163-1.847,0.488-2.639c0.326-0.791,0.777-1.466,1.354-2.024
		s1.261-0.987,2.052-1.284c0.791-0.298,1.643-0.447,2.555-0.447c1.861,0,3.406,0.531,4.635,1.592
		c1.341,1.228,2.011,2.829,2.011,4.802c0,2.81-1.582,5.1-4.746,6.868l4.048,5.026c0.428-1.303,0.698-2.504,0.81-3.602h3.714
		c-0.279,2.588-0.968,4.784-2.066,6.589l5.109,6.282H1301.985z M1292.046,94.547c-0.801,0.484-1.415,0.865-1.843,1.145
		c-0.43,0.279-0.689,0.465-0.782,0.558c-0.949,0.838-1.424,1.964-1.424,3.378c0,0.689,0.103,1.313,0.308,1.871
		c0.204,0.558,0.497,1.033,0.879,1.424c0.381,0.391,0.828,0.694,1.34,0.907c0.513,0.215,1.075,0.322,1.689,0.322
		c2.104,0,3.815-0.959,5.138-2.876L1292.046,94.547z M1296.457,85.724c0-0.912-0.247-1.661-0.74-2.248
		c-0.493-0.586-1.149-0.879-1.968-0.879c-0.801,0-1.466,0.275-1.996,0.824c-0.531,0.549-0.796,1.28-0.796,2.191
		c0,0.745,0.288,1.546,0.865,2.402l1.535,2.01C1295.424,88.721,1296.457,87.287,1296.457,85.724"/>
	<path display="inline" clip-path="url(#SVGID_4_)" fill="#151143" d="M1347.969,93.458c0,3.965-1.125,7.297-3.378,9.996
		c-2.4,2.792-5.547,4.188-9.437,4.188c-3.909,0-7.036-1.396-9.381-4.188c-2.253-2.699-3.379-6.031-3.379-9.996
		c0-1.991,0.283-3.797,0.852-5.417c0.567-1.619,1.43-3.099,2.583-4.439c1.173-1.396,2.54-2.438,4.104-3.127
		c1.563-0.688,3.304-1.033,5.221-1.033c3.909,0,7.055,1.387,9.437,4.16c1.117,1.34,1.96,2.82,2.527,4.439
		C1347.686,89.661,1347.969,91.467,1347.969,93.458 M1343.279,93.458c0-2.829-0.633-5.156-1.898-6.98
		c-1.489-2.14-3.565-3.211-6.227-3.211c-2.699,0-4.756,1.052-6.171,3.155c-1.304,1.862-1.954,4.207-1.954,7.036
		c0,2.885,0.65,5.268,1.954,7.148c1.452,2.122,3.509,3.183,6.171,3.183c2.643,0,4.719-1.061,6.227-3.183
		C1342.646,98.689,1343.279,96.306,1343.279,93.458"/>
	<path display="inline" clip-path="url(#SVGID_4_)" fill="#151143" d="M1372.902,88.517c0,2.14-0.558,3.937-1.675,5.388
		c-1.526,1.993-3.983,2.988-7.371,2.988h-7.036V107h-4.69V80.057h11.671C1369.868,80.057,1372.902,82.876,1372.902,88.517
		 M1368.268,88.404c0-2.997-1.563-4.495-4.69-4.495h-6.757v9.13h6.757c1.247,0,2.298-0.344,3.155-1.033
		C1367.756,91.15,1368.268,89.95,1368.268,88.404"/>
	<polygon display="inline" clip-path="url(#SVGID_4_)" fill="#151143" points="1376.896,107 1376.896,80.057 1396.356,80.057 
		1396.356,84.133 1381.586,84.133 1381.586,91.113 1395.043,91.113 1395.043,95.05 1381.586,95.05 1381.586,102.952 
		1396.356,102.952 1396.356,107 	"/>
	<path display="inline" clip-path="url(#SVGID_4_)" fill="#151143" d="M1418.19,107c-0.447-0.744-0.67-2.057-0.67-3.937
		c0-2.606-0.345-4.439-1.033-5.5c-0.819-1.098-2.253-1.648-4.3-1.648h-6.925V107h-4.69V80.056h12.927
		c5.789,0,8.684,2.467,8.684,7.399c0,3.37-1.479,5.594-4.439,6.674v0.055c2.662,0.522,3.993,2.43,3.993,5.724
		c0,3.667,0.475,6.031,1.424,7.092H1418.19z M1417.521,88.014c0-2.736-1.527-4.104-4.579-4.104h-7.679v8.348h7.734
		C1416.013,92.258,1417.521,90.844,1417.521,88.014"/>
	<path display="inline" clip-path="url(#SVGID_4_)" fill="#151143" d="M1444.211,107l-2.512-7.147h-10.582l-2.401,7.147h-4.914
		l10.163-26.943h4.97l10.19,26.943H1444.211z M1436.478,84.635h-0.111l-4.049,11.671h8.181L1436.478,84.635z"/>
	<polygon display="inline" clip-path="url(#SVGID_4_)" fill="#151143" points="1462.221,84.133 1462.221,107 1457.586,107 
		1457.586,84.133 1449.126,84.133 1449.126,80.056 1470.736,80.056 1470.736,84.133 	"/>
	<rect x="1473.835" y="80.057" display="inline" clip-path="url(#SVGID_4_)" fill="#151143" width="4.69" height="26.943"/>
	<path display="inline" clip-path="url(#SVGID_4_)" fill="#151143" d="M1508.4,93.458c0,3.965-1.127,7.297-3.379,9.996
		c-2.4,2.792-5.547,4.188-9.437,4.188c-3.909,0-7.036-1.396-9.381-4.188c-2.253-2.699-3.379-6.031-3.379-9.996
		c0-1.991,0.282-3.797,0.852-5.417c0.567-1.619,1.429-3.099,2.583-4.439c1.173-1.396,2.54-2.438,4.104-3.127
		c1.563-0.688,3.304-1.033,5.221-1.033c3.909,0,7.055,1.387,9.437,4.16c1.117,1.34,1.959,2.82,2.527,4.439
		C1508.116,89.661,1508.4,91.467,1508.4,93.458 M1503.71,93.458c0-2.829-0.633-5.156-1.898-6.98
		c-1.489-2.14-3.565-3.211-6.227-3.211c-2.699,0-4.756,1.052-6.171,3.155c-1.303,1.862-1.954,4.207-1.954,7.036
		c0,2.885,0.651,5.268,1.954,7.148c1.452,2.122,3.509,3.183,6.171,3.183c2.643,0,4.719-1.061,6.227-3.183
		C1503.077,98.689,1503.71,96.306,1503.71,93.458"/>
	<polygon display="inline" clip-path="url(#SVGID_4_)" fill="#151143" points="1529.09,107 1516.916,87.093 1516.805,87.093 
		1516.805,107 1512.394,107 1512.394,80.057 1517.363,80.057 1529.564,99.964 1529.62,99.964 1529.62,80.057 1534.06,80.057 
		1534.06,107 	"/>
	<path display="inline" clip-path="url(#SVGID_4_)" fill="#151143" d="M1559.635,99.154c0,2.83-1.108,5.007-3.323,6.533
		c-1.862,1.303-4.28,1.955-7.259,1.955c-3.258,0-5.845-0.763-7.762-2.29c-2.122-1.675-3.211-4.094-3.267-7.259h4.578
		c0,3.797,2.271,5.696,6.813,5.696c1.898,0,3.322-0.419,4.271-1.257c0.838-0.707,1.256-1.637,1.256-2.792
		c0-1.507-0.763-2.633-2.289-3.378c-0.429-0.205-1.07-0.428-1.927-0.67s-1.926-0.493-3.211-0.754c-2.755-0.596-4.7-1.265-5.835-2.01
		c-1.787-1.229-2.681-3.099-2.681-5.612c0-2.55,1.023-4.551,3.071-6.003c1.769-1.247,3.983-1.871,6.646-1.871
		c2.866,0,5.249,0.726,7.147,2.178c2.028,1.545,3.043,3.658,3.043,6.338h-4.69c-0.187-3.127-2.149-4.691-5.892-4.691
		c-1.172,0-2.224,0.326-3.154,0.977c-1.024,0.671-1.536,1.583-1.536,2.737c0,1.47,0.801,2.522,2.401,3.155
		c0.261,0.111,0.842,0.279,1.744,0.502c0.903,0.224,2.109,0.494,3.616,0.81c1.285,0.261,2.401,0.572,3.351,0.935
		c0.948,0.363,1.722,0.778,2.317,1.243C1558.778,94.892,1559.635,96.735,1559.635,99.154"/>
	<polygon display="inline" clip-path="url(#SVGID_4_)" fill="#151143" points="1286.755,157.133 1286.755,180 1282.12,180 
		1282.12,157.133 1273.66,157.133 1273.66,153.056 1295.271,153.056 1295.271,157.133 	"/>
	<rect x="1298.369" y="153.057" display="inline" clip-path="url(#SVGID_4_)" fill="#151143" width="4.69" height="26.943"/>
	<path display="inline" clip-path="url(#SVGID_4_)" fill="#151143" d="M1328.076,177.654c-2.048,1.992-4.7,2.987-7.957,2.987
		c-3.854,0-6.981-1.396-9.381-4.188c-2.253-2.698-3.379-6.03-3.379-9.995c0-4.002,1.107-7.287,3.322-9.856
		c2.327-2.773,5.473-4.16,9.438-4.16c1.545,0,2.979,0.214,4.3,0.642c1.321,0.428,2.48,1.043,3.476,1.842
		c0.996,0.801,1.802,1.773,2.416,2.918c0.614,1.146,0.986,2.434,1.116,3.867h-4.69c-0.726-3.629-2.932-5.444-6.617-5.444
		c-2.699,0-4.756,1.052-6.171,3.155c-1.303,1.861-1.954,4.207-1.954,7.036c0,2.885,0.651,5.268,1.954,7.148
		c1.452,2.121,3.509,3.182,6.171,3.182c2.011,0,3.611-0.679,4.803-2.038c1.135-1.247,1.805-2.913,2.01-4.997h4.495
		C1331.26,172.974,1330.143,175.607,1328.076,177.654"/>
	<polygon display="inline" clip-path="url(#SVGID_4_)" fill="#151143" points="1352.953,180 1344.326,167.24 1340.417,171.373 
		1340.417,180 1335.727,180 1335.727,153.057 1340.417,153.057 1340.417,165.258 1352.311,153.057 1357.979,153.057 
		1347.453,163.862 1358.733,180 	"/>
	<polygon display="inline" clip-path="url(#SVGID_4_)" fill="#151143" points="1361.162,180 1361.162,153.057 1380.623,153.057 
		1380.623,157.133 1365.852,157.133 1365.852,164.113 1379.311,164.113 1379.311,168.05 1365.852,168.05 1365.852,175.952 
		1380.623,175.952 1380.623,180 	"/>
	<polygon display="inline" clip-path="url(#SVGID_4_)" fill="#151143" points="1395.421,157.133 1395.421,180 1390.786,180 
		1390.786,157.133 1382.326,157.133 1382.326,153.056 1403.937,153.056 1403.937,157.133 	"/>
	<rect x="1407.035" y="153.057" display="inline" clip-path="url(#SVGID_4_)" fill="#151143" width="4.69" height="26.943"/>
	<polygon display="inline" clip-path="url(#SVGID_4_)" fill="#151143" points="1433.923,180 1421.749,160.093 1421.638,160.093 
		1421.638,180 1417.227,180 1417.227,153.057 1422.195,153.057 1434.397,172.964 1434.453,172.964 1434.453,153.057 
		1438.893,153.057 1438.893,180 	"/>
	<path display="inline" clip-path="url(#SVGID_4_)" fill="#151143" d="M1464.747,180l-0.728-2.959
		c-1.897,2.4-4.587,3.601-8.067,3.601c-3.965,0-7.13-1.377-9.493-4.132c-2.178-2.569-3.267-5.919-3.267-10.052
		c0-3.927,1.145-7.249,3.434-9.967c2.364-2.699,5.473-4.049,9.326-4.049c1.524,0,2.927,0.187,4.201,0.559
		c1.275,0.373,2.425,0.949,3.447,1.731c2.179,1.638,3.444,3.946,3.799,6.924h-4.523c-0.111-0.837-0.373-1.591-0.782-2.261
		c-0.41-0.67-0.926-1.238-1.549-1.704c-0.624-0.464-1.326-0.818-2.109-1.062c-0.78-0.241-1.609-0.362-2.483-0.362
		c-2.699,0-4.757,1.051-6.171,3.155c-1.303,1.861-1.954,4.206-1.954,7.035c0,2.886,0.651,5.269,1.954,7.148
		c1.452,2.122,3.509,3.183,6.171,3.183c1.19,0,2.247-0.167,3.169-0.502c0.921-0.335,1.698-0.824,2.331-1.466
		c0.633-0.642,1.116-1.415,1.452-2.318c0.335-0.902,0.512-1.931,0.531-3.085h-7.261v-3.602h11.504V180H1464.747z"/>
	
		<line display="inline" clip-path="url(#SVGID_4_)" fill="none" stroke="#262262" stroke-miterlimit="10" x1="1220.971" y1="61.168" x2="1506.829" y2="61.168"/>
	
		<line display="inline" clip-path="url(#SVGID_4_)" fill="none" stroke="#262262" stroke-miterlimit="10" x1="1220.971" y1="128.299" x2="1506.829" y2="128.299"/>
	<path display="inline" clip-path="url(#SVGID_4_)" fill="#FFFFFF" d="M1280.932,461.358"/>
</g>
</svg>
