<?xml version="1.0" encoding="utf-8"?>
<!-- Generator: Adobe Illustrator 16.0.0, SVG Export Plug-In . SVG Version: 6.00 Build 0)  -->
<!DOCTYPE svg PUBLIC "-//W3C//DTD SVG 1.1//EN" "http://www.w3.org/Graphics/SVG/1.1/DTD/svg11.dtd">
<svg version="1.1" id="Layer_1" xmlns="http://www.w3.org/2000/svg" xmlns:xlink="http://www.w3.org/1999/xlink" x="0px" y="0px"
	 width="1700.79px" height="642.39px" viewBox="0 0 1700.79 642.39" enable-background="new 0 0 1700.79 642.39"
	 xml:space="preserve">
<rect x="0.538" y="0.251" display="none" fill="#151143" width="1699.715" height="642.139"/>
<g>
	<path fill="#FFF200" d="M1612.344,614.689H91.921c-24.634,0-44.789-20.154-44.789-44.789v-58.422
		c0-24.634,20.155-44.789,44.789-44.789h1520.422c24.634,0,44.789,20.155,44.789,44.789V569.9
		C1657.133,594.535,1636.978,614.689,1612.344,614.689"/>
	<path fill="#2B3990" d="M1310.996,372.5c3.217,0,3.223-5,0-5C1307.779,367.5,1307.773,372.5,1310.996,372.5"/>
	<path fill="#FFFFFF" d="M657.096,384.745c-2.385,13.781-4.8,26.202-6.576,38.714c-0.79,5.565-3.127,7.757-8.678,7.458
		c-5.979-0.322-11.992,0.059-17.981-0.149c-4.678-0.163-7.066-2.396-6.117-7.532c4.833-26.157,9.983-52.265,14.161-78.528
		c2.458-15.455,5.982-30.718,7.921-46.244c0.46-3.685,1.984-5.021,5.551-4.951c6.573,0.131,13.152-0.047,19.727,0.033
		c6.52,0.08,7.979,1.82,6.875,8.142c-1.694,9.695-3.505,19.37-5.199,29.064c-0.243,1.392-1.427,3.293,0.553,4.106
		c1.785,0.734,2.642-1.118,3.543-2.317c8.531-11.372,17.112-22.709,25.523-34.169c2.357-3.213,4.974-5.084,9.159-4.903
		c5.715,0.248,11.449,0.062,18.22,0.062c-72.141-30.706-103.631-84.014-86.123-159.318c13.553-58.296,60.424-89.012,109.531-93.565
		c71.826-6.659,116.512,34.585,134.798,80.068c19.177,47.697,10.311,115.924-50.896,157.841c9.853-2.139,17.821-5.749,25.92-8.815
		c44.872-16.988,85.546-41.337,122.51-71.73c14.741-12.12,28.878-25.089,41.408-39.629c4.925-5.716,4.823-6.157-1.848-9.477
		c-1.549-0.771-4.419-0.864-3.971-3.452c0.456-2.631,2.878-3.41,5.365-3.497c1.933-0.067,3.866-0.062,5.8-0.076
		c6.676-0.046,10.927-3.077,12.723-9.259c1.076-3.704-1.572-4.928-4.327-5.437c-5.882-1.087-11.823-1.858-17.743-2.741
		c-2.059-0.307-4.863-0.027-4.947-2.843c-0.086-2.823,2.641-2.867,4.75-3.034c4.815-0.383,9.634-0.856,14.459-0.975
		c4.354-0.106,8.313-0.259,11.056-4.618c1.457-2.315,3.903-2.773,4.967,0.84c0.351,1.193-0.332,2.896,1.658,3.188
		c2.069,0.304,3.107-1.036,4.141-2.55c2.396-3.512,4.646-7.17,7.436-10.349c2.213-2.522,5.403-6.091,8.704-3.767
		c3.183,2.24,1.34,6.581-0.334,9.579c-2.061,3.686-5.019,6.865-7.143,10.522c-1.246,2.144-3.249,5.347,2.307,5.079
		c2.406-0.117,3.742,2.594,2.633,4.117c-5.954,8.169-0.067,15.57,1.096,23.232c0.468,3.083,3.566,7.159-0.396,8.729
		c-3.766,1.491-4.025-3.65-5.423-6.05c-2.912-5.003-5.256-10.307-8.966-14.871c-2.027-2.492-3.088-3.104-5.754-0.469
		c-4.904,4.846-6.385,9.847-3.061,16.081c0.714,1.34,1.137,2.897,1.389,4.405c0.332,1.987,0.052,4.004-2.025,4.971
		c-2.013,0.938-3.142-0.623-4.36-1.913c-4.846-5.124-4.642-4.91-9.453,0.511c-14.274,16.082-29.89,30.837-46.617,44.294
		c-39.869,32.076-84.453,55.633-133.037,71.48c-16.875,5.505-34.165,9.725-51.669,13.527c7.345,0,14.692,0.101,22.035-0.043
		c3.719-0.072,5.037,1.122,5.85,5.124c3.565,17.548,0.446,35.516,3.863,53.059c1.047,5.378-1.157,11.15,1.618,17.636
		c1.063-4.507,2.213-8.035,2.695-11.651c2.677-20.067,7.823-39.725,9.871-59.89c0.288-2.838,1.677-4.179,4.457-4.199
		c6.77-0.047,13.539-0.084,20.308-0.132c3.36-0.024,4.968,1.848,5.159,4.995c0.116,1.92,0.272,3.955-0.207,5.775
		c-4.684,17.764-6.341,36.088-10.107,54.03c-2.888,13.755-4.378,27.799-7.039,41.608c-1.605,8.335-3.304,16.641-4.286,25.071
		c-0.533,4.581-2.985,6.13-7.449,6.02c-9.085-0.228-18.187-0.32-27.267-0.009c-5.072,0.176-6.381-1.535-6.644-6.63
		c-1.212-23.468-2.995-46.906-5.227-70.456c-0.906,8.448-3.286,16.558-4.679,24.878c-2.549,15.219-5.342,30.397-7.779,45.633
		c-0.759,4.745-3.032,6.705-7.747,6.529c-5.022-0.187-10.057,0.04-15.084-0.058c-6.46-0.126-8.386-2.281-7.363-8.677
		c1.344-8.394,3.013-16.736,4.502-25.107c3.04-17.101,5.77-34.264,9.163-51.294c2.865-14.382,4.928-28.883,7.4-43.322
		c0.407-2.378,1.584-5.192-1.916-6.338c-3.578-1.171-10.096,1.43-10.718,4.399c-1.342,6.406-2.534,12.85-3.563,19.315
		c-4.885,30.701-9.838,61.389-16.116,91.847c-1.009,4.897-1.908,9.83-2.545,14.788c-0.404,3.137-1.982,4.431-4.943,4.428
		c-6.962-0.007-13.925,0.016-20.887-0.058c-4.313-0.045-6.163-2.244-6.045-6.635c0.201-7.427,3.13-14.264,4.234-21.513
		c2.675-17.562,5.816-35.055,8.923-52.549c2.629-14.801,5.501-29.558,8.19-44.348c0.378-2.076,0.565-4.247,0.421-6.345
		c-0.21-3.051-1.661-4.239-5.161-4.399c-4.04-0.184-3.317,1.669-2.96,3.987c0.172,1.115,0.129,1.903-0.865,2.981
		c-16.623,18.029-30.136,38.532-45.578,57.507c-1.954,2.401-1.852,4.87-0.705,7.595c6.062,14.413,11.539,29.069,18.254,43.211
		c2.064,4.347,3.752,8.895,5.293,13.459c1.406,4.166-0.05,6.953-4.771,7.023c-7.347,0.109-14.698-0.026-22.047,0.03
		c-3.601,0.026-5.058-2.241-6.071-5.178c-4.29-12.443-10.13-24.237-15.273-36.323C659.031,388.165,658.341,387.079,657.096,384.745
		 M711.895,167.102c-1.304,30.391,23.127,51.609,48.542,51.982c27.985,0.411,50.681-21.409,51.451-48.164
		c0.914-31.78-23.152-51.714-49.033-53.038C736.825,116.55,710.227,141.862,711.895,167.102"/>
	<path fill="#FFFFFF" d="M557.361,295.148c-29.951-5-53.05-20.116-75.264-37.014c-4.126-3.139-8.271-6.256-12.473-9.293
		c-3.169-2.29-5.142-0.999-5.92,3.654c-1.816,10.852-3.833,21.674-5.448,32.556c-0.749,5.049-3.219,6.653-8.183,6.628
		c-33.65-0.164-67.302-0.08-100.953-0.127c-6.646-0.009-11.088-4.608-10.013-11.138c2.914-17.69,6.314-35.3,9.375-52.968
		c3.1-17.888,5.87-35.835,9.06-53.707c5.623-31.505,11.726-62.927,17.053-94.481c1.828-10.83,5.114-21.442,5.382-32.526
		c0.122-5.035,3.22-5.828,7.425-5.808c18.953,0.091,37.906,0.032,56.859,0.026c17.986-0.005,36.011-0.746,53.947,0.191
		c17.225,0.901,34.437,2.412,51.467,6.072c18.165,3.905,33.896,11.826,46.125,25.518c12.93,14.479,20.015,31.756,21.443,51.418
		c2.335,32.146-8.171,59.749-29.231,83.42c-17.481,19.647-38.568,34.058-64.561,40.336c-1.176,0.284-2.371,0.602-2.739,1.818
		c-0.557,1.843,1.199,2.175,2.246,2.87c12.428,8.246,26.475,12.314,40.756,15.793c3.363,0.819,6.784,1.548,10.003,2.778
		c5.249,2.006,7.591,8.989,5.038,16.054c-1.23,3.404-0.697,3.72,2.739,4.571c8.266,2.046,16.948,0.811,25.045,3.822
		c13.235,4.922,20.164,11.792,15.785,27.669c-2.497,9.053-2.47,18.771-4.442,28.006c-3.748,17.545-6.777,35.199-9.102,52.969
		c-2.175,16.619-14.482,24.532-28.356,26.044c-16.577,1.807-33.514,2.851-50.123-1.57c-8.062-2.146-13.599-8.609-13.748-17.001
		c-0.151-8.555,2.056-16.822,3.254-25.199c1.661-11.612,3.971-23.132,6.017-34.689c2.152-12.16,3.763-24.45,6.638-36.438
		C535.289,303.614,544.502,298.1,557.361,295.148 M513.02,68.723c-4.06,0-8.119,0.018-12.179-0.006
		c-2.734-0.016-4.225,1.183-4.72,3.987c-2.84,16.096-5.808,32.172-8.707,48.254c-4.653,25.811-8.428,51.784-13.95,77.438
		c-2.216,10.296-0.621,18.871,8.906,24.993c3.704,2.38,6.745,6.227,11.749,5.079c8.988-2.061,18.333-2.4,27.073-5.605
		c19.949-7.315,37.296-18.398,50.869-35.012c18.292-22.391,24.045-47.692,16.32-75.451c-3.847-13.824-13.089-24.739-25.393-31.841
		C547.721,71.748,530.328,69.989,513.02,68.723 M558.624,414.257c12.2-0.017,15.925-3.372,17.762-13.931
		c3.038-17.469,6.26-34.906,9.472-52.345c1.43-7.767,3.101-15.489,4.526-23.257c1.717-9.356-0.158-13.743-7.243-13.708
		c-11.493,0.057-19.528,0.603-19.885,14.746c-0.02,0.766-0.231,1.527-0.367,2.288c-4.665,26.009-9.267,52.029-14.055,78.015
		c-0.895,4.857,1.666,6.837,5.522,7.914C556.17,414.485,558.194,414.236,558.624,414.257"/>
	<path fill="#FFFFFF" d="M168.593,40.948c10.827,0.003,21.674,0.418,32.476-0.091c17.794-0.84,35.448,1.231,53.054,2.709
		c22.003,1.848,42.755,8.438,59.277,24.272c10.019,9.601,17.748,20.714,22.172,34.123c6.038,18.301,6.139,36.462,1.664,55.165
		c-6.004,25.093-19.363,45.623-37.945,62.719c-11.202,10.307-24.571,17.688-38.868,23.444c-19.81,7.976-40.302,9.889-61.323,8.874
		c-3.943-0.19-8.534-3.217-11.638-0.124c-2.771,2.761-1.676,7.733-2.649,11.631c-1.865,7.476-3.303,14.972-3.674,22.694
		c-0.221,4.622-3.583,5.254-7.453,5.239c-18.753-0.071-37.507-0.029-56.261-0.033c-15.273-0.004-30.547,0.034-45.82-0.044
		c-7.331-0.037-11.047-5.586-9.561-12.776c3.241-15.679,5.591-31.552,9.158-47.151c4.218-18.451,6.534-37.235,10.772-55.694
		c3.532-15.388,5.162-31.211,7.717-46.828c4.451-27.213,9.169-54.385,13.29-81.648c0.854-5.648,3.746-6.486,8.192-6.485
		C130.313,40.948,149.453,40.945,168.593,40.948 M210.784,226.657c8.877,0,17.648-0.405,26.424-2.279
		c17.662-3.771,32.819-12.247,46.085-24.067c15.887-14.156,25.795-31.776,30.031-52.862c4.982-24.804-2.78-45.451-20.984-61.438
		c-13.365-11.737-30.389-16.885-48.466-17.261c-4.801-0.1-9.484-0.132-14.277-1.537c-7.436-2.178-10.375,0.113-11.738,7.441
		c-2.326,12.5-4.836,24.967-7.02,37.491c-4.439,25.458-8.387,51-13.514,76.337c-1.863,9.206-3.512,18.467-4.858,27.761
		c-1.155,7.975,0.527,9.676,8.473,9.979C204.222,226.348,207.503,226.511,210.784,226.657"/>
	<path fill="#FFFFFF" d="M344.812,430.858c-11.589,0-19.318,0.079-27.045-0.025c-6.073-0.083-7.94-1.968-7.075-7.728
		c1.332-8.874,3.081-17.686,4.629-26.528c1.827-10.432,3.434-20.906,5.479-31.294c4.13-20.977,7.402-42.095,10.851-63.186
		c1.302-7.963,1.863-8.497,9.636-8.179c14.089,0.577,28.196-1.414,42.242,0.138c8.369,0.925,16.665,2.12,23.853,7.614
		c4.746,3.627,7.431,7.888,7.322,13.552c-0.234,12.22-2.948,24.09-6.294,35.779c-1.043,3.642-2.708,7.144-6.537,9.16
		c-1.896,0.999-3.386,3.182-1.359,5.299c5.576,5.824,3.351,12.758,2.601,19.222c-0.996,8.577-2.739,17.088-4.55,25.544
		c-1.848,8.634-8.486,12.977-15.961,16.137C369.201,432.028,355.019,431.055,344.812,430.858 M362.008,351.577
		c9.433-0.586,16.341-4.199,17.08-10.603c0.748-6.488,2.006-12.916,3.017-19.375c0.512-3.27,0.132-7.142-3.014-8.011
		c-5.028-1.389-10.161-3.972-15.621-2.337c-1.956,0.585-1.432,2.904-1.695,4.578c-1.555,9.886-2.94,19.805-4.8,29.634
		C355.861,351.348,355.907,351.762,362.008,351.577 M353.369,412.281c7.657-0.102,12.291-2.418,13.506-7.553
		c1.726-7.304,3.222-14.691,4.257-22.12c0.905-6.505-1.284-8.692-8.169-9.549c-8.547-1.065-11.53,0.485-12.628,6.943
		c-1.387,8.155-2.67,16.332-3.787,24.528C345.485,412.328,345.639,412.384,353.369,412.281"/>
	<path fill="#FFFFFF" d="M454.376,431.089c-5.993,0-11.986,0.003-17.979,0c-9.086-0.005-16.244-4.227-22.626-10.242
		c-1.871-1.763-2.491-3.852-2.232-6.284c2.079-19.551,5.252-38.918,9.238-58.175c2.225-10.753,4.287-21.594,5.44-32.5
		c1.478-13.982,6.482-24.415,24.735-28.316c17.787-3.802,35.515-4.968,52.85,0.99c12.602,4.332,18.048,11.805,14.05,26.376
		c-2.788,10.162-3.548,20.871-5.392,31.304c-3.388,19.176-6.608,38.389-10.527,57.458c-1.464,7.125-6.988,11.397-13.546,14.834
		C477.459,432.261,465.879,430.954,454.376,431.089 M455.529,414.249c9.037,1.389,16.161-5.499,16.923-14.077
		c1.549-17.456,6.298-34.396,8.721-51.722c1.389-9.928,3.972-19.661,4.771-29.698c0.225-2.821-0.223-4.819-2.814-6.29
		c-9.727-5.526-22.879,0.237-24.755,11.066c-4.538,26.201-8.602,52.492-13.64,78.595
		C443.19,410.125,446.867,415.356,455.529,414.249"/>
	<path fill="#FFFFFF" d="M943.604,358.555c6.189,0.006,12.378,0.009,18.566,0.005c4.465-0.002,6.407,2.109,5.613,6.599
		c-2.422,13.697-4.827,27.398-7.234,41.098c-0.967,5.504-2.155,10.983-2.79,16.525c-0.35,3.054-1.92,4.635-4.483,5.309
		c-4.833,1.271-9.531,3.384-14.688,2.996c-5.678-0.428-11.127,2.221-16.581,1.848c-13.007-0.889-26.149-1.038-38.913-4.151
		c-8.364-2.041-14.071-9.576-13.648-18.092c0.908-18.346,5.271-36.195,8.162-54.254c1.984-12.384,4.707-24.632,6.338-37.092
		c1.444-11.031,7.5-18.358,18.398-22.373c10.229-3.768,20.96-4.403,31.293-4.753c10.652-0.36,21.909,0.988,31.949,6.254
		c7.499,3.933,11.863,10.552,10.342,18.847c-1.142,6.231-1.317,12.633-3.273,18.767c-0.927,2.903-2.174,4.269-5.154,4.248
		c-6.962-0.048-13.926,0.066-20.887-0.045c-4.839-0.077-6.338-2.767-5.479-7.347c0.743-3.969,1.293-7.986,1.693-12.006
		c0.674-6.766-0.673-8.527-7.294-10.115c-9.09-2.18-17.754,3.819-19.398,12.955c-3.932,21.84-8.109,43.635-12.169,65.452
		c-1.021,5.489-1.805,11.029-3.033,16.47c-0.523,2.319,0.398,3.667,1.759,5.114c2.58,2.743,5.813,3.432,9.458,3.469
		c18.859,0.189,13.476,0.026,17.195-14.609c1.356-5.336,1.626-11.072,2.834-16.537c0.815-3.689,0.072-5.268-4.09-5.379
		c-10.591-0.282-11.054-1.18-9.231-11.984c0.842-4.986,2.453-8.083,8.517-7.359C932.713,359.053,938.188,358.549,943.604,358.555"/>
	<polygon fill="#151143" points="260.831,570.654 248.743,570.654 238.873,530.871 238.721,530.871 229.004,570.654 216.61,570.654 
		200.467,517.252 212.708,517.252 223.19,557.34 223.343,557.34 233.212,517.252 244.994,517.252 254.558,557.34 254.71,557.34 
		265.345,517.252 277.28,517.252 	"/>
	<polygon fill="#151143" points="340.245,570.654 328.157,570.654 318.287,530.871 318.135,530.871 308.417,570.654 
		296.023,570.654 279.88,517.252 292.122,517.252 302.604,557.34 302.757,557.34 312.625,517.252 324.408,517.252 333.972,557.34 
		334.124,557.34 344.759,517.252 356.693,517.252 	"/>
	<polygon fill="#151143" points="419.658,570.654 407.57,570.654 397.7,530.871 397.548,530.871 387.831,570.654 375.437,570.654 
		359.294,517.252 371.535,517.252 382.017,557.34 382.17,557.34 392.039,517.252 403.821,517.252 413.385,557.34 413.537,557.34 
		424.172,517.252 436.107,517.252 	"/>
	<rect x="444.522" y="556.729" fill="#151143" width="13.771" height="13.924"/>
	<path fill="#151143" d="M524.319,544.181c0,7.702-1.836,14.129-5.508,19.281c-4.132,5.713-9.87,8.568-17.214,8.568
		c-8.366,0-14.307-2.703-17.826-8.109h-0.153v26.47h-11.629v-73.139h10.94v7.191h0.153c3.11-5.764,8.645-8.646,16.602-8.646
		c7.957,0,14.128,2.781,18.514,8.339C522.278,529.291,524.319,535.97,524.319,544.181 M512.69,544.03
		c0-2.603-0.319-5.063-0.956-7.384c-0.639-2.319-1.582-4.335-2.831-6.044c-1.251-1.709-2.78-3.06-4.59-4.055
		c-1.811-0.995-3.864-1.492-6.159-1.492c-4.795,0-8.506,1.684-11.132,5.049c-2.627,3.366-3.94,8.01-3.94,13.926
		c0,2.704,0.356,5.202,1.071,7.497c0.714,2.296,1.722,4.284,3.022,5.968c1.301,1.683,2.881,2.997,4.744,3.939
		c1.861,0.945,3.939,1.415,6.235,1.415c4.845,0,8.594-1.988,11.246-5.967c1.122-1.632,1.951-3.532,2.487-5.7
		C512.422,549.015,512.69,546.63,512.69,544.03"/>
	<path fill="#151143" d="M563.185,527.045c-0.612-0.052-1.25-0.077-1.913-0.077c-2.5,0-4.718,0.434-6.656,1.301
		c-1.939,0.868-3.557,2.104-4.858,3.711c-1.301,1.606-2.295,3.52-2.984,5.738c-0.689,2.218-1.033,4.68-1.033,7.383v25.552h-11.552
		v-53.4h10.787v10.327h0.306c0.306-1.579,0.968-3.085,1.989-4.514c1.02-1.427,2.269-2.688,3.749-3.787
		c1.479-1.096,3.149-1.976,5.011-2.639c1.862-0.662,3.813-0.994,5.854-0.994c0.561,0,1.11,0.026,1.645,0.076
		c0.535,0.052,1.083,0.128,1.645,0.229v11.323C564.458,527.173,563.796,527.096,563.185,527.045"/>
	<path fill="#151143" d="M621.099,543.876c0,8.263-2.295,14.995-6.885,20.197c-4.795,5.306-11.374,7.956-19.739,7.956
		c-4.131,0-7.841-0.676-11.131-2.026c-3.29-1.352-6.082-3.265-8.378-5.738c-2.295-2.473-4.055-5.444-5.279-8.913
		c-1.224-3.468-1.836-7.293-1.836-11.476s0.612-7.995,1.836-11.438c1.224-3.442,2.984-6.399,5.279-8.874
		c2.296-2.474,5.088-4.386,8.378-5.739c3.29-1.35,7-2.026,11.131-2.026c8.313,0,14.893,2.628,19.739,7.881
		C618.804,528.832,621.099,535.563,621.099,543.876 M609.7,543.876c0-5.253-1.25-9.588-3.749-13.006
		c-2.652-3.877-6.478-5.814-11.476-5.814c-4.693,0-8.492,1.989-11.399,5.967c-2.398,3.469-3.596,7.753-3.596,12.854
		c0,5.05,1.198,9.386,3.596,13.006c2.907,3.978,6.706,5.968,11.399,5.968c2.449,0,4.616-0.509,6.503-1.531
		c1.887-1.019,3.545-2.498,4.973-4.437C608.45,553.313,609.7,548.977,609.7,543.876"/>
	<path fill="#151143" d="M683.146,544.181c0,7.754-1.887,14.182-5.661,19.281c-4.132,5.713-9.921,8.568-17.367,8.568
		c-8.569,0-14.64-2.806-18.209-8.416h-0.153v7.039h-10.94v-73.829h11.629v27.007h0.153c3.263-5.356,8.568-8.033,15.913-8.033
		c7.957,0,14.128,2.781,18.514,8.339C681.105,529.291,683.146,535.97,683.146,544.181 M671.518,544.03
		c0-2.603-0.319-5.063-0.956-7.384c-0.639-2.319-1.582-4.335-2.831-6.044c-1.251-1.709-2.78-3.06-4.59-4.055
		c-1.811-0.995-3.864-1.492-6.159-1.492c-4.795,0-8.506,1.684-11.132,5.049c-2.627,3.366-3.94,8.01-3.94,13.926
		c0,2.704,0.356,5.202,1.071,7.497c0.714,2.296,1.722,4.284,3.022,5.968c1.301,1.683,2.881,2.997,4.744,3.939
		c1.861,0.945,3.939,1.415,6.235,1.415c4.845,0,8.594-1.988,11.246-5.967c1.122-1.632,1.951-3.532,2.487-5.7
		C671.25,549.015,671.518,546.63,671.518,544.03"/>
	<path fill="#151143" d="M743.892,543.876c0,8.263-2.295,14.995-6.885,20.197c-4.795,5.306-11.374,7.956-19.739,7.956
		c-4.131,0-7.841-0.676-11.131-2.026c-3.29-1.352-6.082-3.265-8.378-5.738c-2.295-2.473-4.055-5.444-5.279-8.913
		c-1.224-3.468-1.836-7.293-1.836-11.476s0.612-7.995,1.836-11.438c1.224-3.442,2.984-6.399,5.279-8.874
		c2.296-2.474,5.088-4.386,8.378-5.739c3.29-1.35,7-2.026,11.131-2.026c8.313,0,14.893,2.628,19.739,7.881
		C741.597,528.832,743.892,535.563,743.892,543.876 M732.493,543.876c0-5.253-1.25-9.588-3.749-13.006
		c-2.652-3.877-6.478-5.814-11.476-5.814c-4.693,0-8.492,1.989-11.399,5.967c-2.398,3.469-3.596,7.753-3.596,12.854
		c0,5.05,1.198,9.386,3.596,13.006c2.907,3.978,6.706,5.968,11.399,5.968c2.449,0,4.616-0.509,6.503-1.531
		c1.887-1.019,3.545-2.498,4.973-4.437C731.243,553.313,732.493,548.977,732.493,543.876"/>
	<path fill="#151143" d="M804.179,543.876c0,8.263-2.295,14.995-6.885,20.197c-4.795,5.306-11.374,7.956-19.739,7.956
		c-4.131,0-7.841-0.676-11.131-2.026c-3.29-1.352-6.082-3.265-8.378-5.738c-2.295-2.473-4.055-5.444-5.279-8.913
		c-1.224-3.468-1.836-7.293-1.836-11.476s0.612-7.995,1.836-11.438c1.224-3.442,2.984-6.399,5.279-8.874
		c2.296-2.474,5.088-4.386,8.378-5.739c3.29-1.35,7-2.026,11.131-2.026c8.313,0,14.893,2.628,19.739,7.881
		C801.884,528.832,804.179,535.563,804.179,543.876 M792.78,543.876c0-5.253-1.25-9.588-3.749-13.006
		c-2.652-3.877-6.478-5.814-11.476-5.814c-4.693,0-8.492,1.989-11.399,5.967c-2.398,3.469-3.596,7.753-3.596,12.854
		c0,5.05,1.198,9.386,3.596,13.006c2.907,3.978,6.706,5.968,11.399,5.968c2.449,0,4.616-0.509,6.503-1.531
		c1.887-1.019,3.545-2.498,4.973-4.437C791.53,553.313,792.78,548.977,792.78,543.876"/>
	<polygon fill="#151143" points="848.86,570.654 832.87,544.489 825.526,551.833 825.526,570.654 813.897,570.654 813.897,496.825 
		825.526,496.825 825.526,538.827 846.794,517.252 861.025,517.252 840.827,536.684 863.09,570.654 	"/>
	<path fill="#151143" d="M869.058,496.824h11.63v11.323h-11.63V496.824z M869.058,517.405h11.63v53.248h-11.63V517.405z"/>
	<path fill="#151143" d="M928.503,570.654v-33.511c0-8.058-3.521-12.088-10.558-12.088c-1.888,0-3.609,0.358-5.164,1.072
		c-1.557,0.714-2.907,1.709-4.056,2.983c-1.147,1.274-2.04,2.768-2.678,4.476c-0.638,1.709-0.956,3.557-0.956,5.546v31.521h-11.553
		v-53.401h10.94v7.803l0.153,0.153c3.723-6.274,9.258-9.41,16.602-9.41c12.548,0,18.821,6.07,18.821,18.209v36.646H928.503z"/>
	<path fill="#151143" d="M1001.337,567.823c0,15.964-8.722,23.947-26.165,23.947c-6.02,0-11.145-1.199-15.378-3.598
		c-2.5-1.479-4.438-3.289-5.815-5.431c-1.376-2.142-2.192-4.667-2.447-7.575h11.553c1.173,5.253,5.457,7.881,12.853,7.881
		c9.181,0,13.771-4.541,13.771-13.618v-7.422h-0.153c-3.265,5.766-8.645,8.646-16.143,8.646c-7.754,0-13.746-2.779-17.979-8.339
		c-3.774-4.998-5.661-11.629-5.661-19.893c0-7.344,2.192-13.591,6.58-18.744c4.386-5.253,10.175-7.881,17.366-7.881
		c3.876,0,7.115,0.702,9.717,2.105c2.601,1.403,4.641,3.532,6.12,6.388h0.153v-7.039h11.629V567.823z M989.708,542.729
		c0-5.151-1.147-9.259-3.442-12.317c-2.653-3.57-6.3-5.355-10.94-5.355c-4.847,0-8.442,1.988-10.788,5.968
		c-2.092,3.314-3.137,7.549-3.137,12.698c0,4.744,1.097,8.748,3.29,12.013c1.224,1.938,2.728,3.366,4.514,4.284
		c1.785,0.918,3.825,1.378,6.121,1.378c4.793,0,8.492-1.989,11.093-5.969C988.61,552.166,989.708,547.931,989.708,542.729"/>
	<path fill="#151143" d="M1057.952,559.79c-1.275,2.602-2.959,4.809-5.05,6.617c-2.092,1.813-4.553,3.201-7.383,4.171
		c-2.83,0.968-5.955,1.452-9.372,1.452c-3.979,0-7.562-0.649-10.749-1.95c-3.188-1.301-5.929-3.303-8.225-6.006
		c-4.488-4.998-6.732-11.525-6.732-19.586c0-8.416,2.192-15.197,6.58-20.35c4.641-5.559,11.119-8.34,19.433-8.34
		c6.527,0,11.96,1.633,16.296,4.896c2.295,1.786,4.079,3.892,5.355,6.313c1.273,2.423,2.039,5.215,2.295,8.377h-11.553
		c-1.071-6.886-5.152-10.328-12.241-10.328c-9.691,0-14.536,6.477-14.536,19.432c0,5.102,1.097,9.283,3.29,12.547
		c2.448,3.878,6.044,5.815,10.787,5.815c7.548,0,11.782-3.979,12.7-11.935h11.553C1060.043,554.23,1059.227,557.188,1057.952,559.79
		"/>
	<path fill="#151143" d="M1078.915,547.013c0,4.54,1.147,8.186,3.443,10.939c2.651,3.266,6.247,4.897,10.787,4.897
		c6.935,0,11.271-3.034,13.006-9.105h11.093c-0.664,2.858-1.733,5.42-3.213,7.69c-1.479,2.269-3.265,4.182-5.355,5.737
		c-2.092,1.557-4.463,2.755-7.114,3.597c-2.653,0.841-5.459,1.261-8.416,1.261c-4.03,0-7.651-0.676-10.864-2.026
		s-5.929-3.252-8.147-5.699c-2.219-2.448-3.915-5.396-5.088-8.837c-1.175-3.442-1.761-7.255-1.761-11.438
		c0-7.905,2.347-14.586,7.041-20.044c4.69-5.457,10.862-8.187,18.514-8.187c7.752,0,13.974,2.729,18.667,8.187
		c4.487,4.948,6.732,11.196,6.732,18.744c0,0.715-0.026,1.428-0.077,2.142c-0.051,0.715-0.127,1.429-0.229,2.143H1078.915z
		 M1106.305,539.133c-0.104-1.888-0.511-3.686-1.225-5.395c-0.715-1.709-1.657-3.213-2.83-4.514c-1.174-1.3-2.563-2.321-4.17-3.061
		c-1.606-0.738-3.354-1.108-5.24-1.108c-1.939,0-3.725,0.356-5.355,1.07c-1.634,0.716-3.061,1.709-4.285,2.984
		c-1.224,1.275-2.219,2.768-2.983,4.475c-0.765,1.71-1.199,3.559-1.301,5.548H1106.305z"/>
	<path fill="#151143" d="M1161.619,570.654v-33.511c0-8.058-3.52-12.088-10.559-12.088c-1.887,0-3.608,0.358-5.163,1.072
		c-1.557,0.714-2.907,1.709-4.056,2.983c-1.147,1.274-2.04,2.768-2.678,4.476c-0.638,1.709-0.956,3.557-0.956,5.546v31.521h-11.553
		v-53.401h10.94v7.803l0.153,0.153c3.723-6.274,9.258-9.41,16.601-9.41c12.549,0,18.822,6.07,18.822,18.209v36.646H1161.619z"/>
	<path fill="#151143" d="M1207.446,570.999c-1.275,0.075-2.576,0.113-3.901,0.113c-5.814,0-9.769-1.146-11.858-3.441
		c-1.888-2.04-2.831-5.434-2.831-10.177v-31.52h-8.799v-8.722h8.799v-16.144h11.553v16.144h10.863v8.722h-10.863v28.537
		c0,2.6,0.331,4.437,0.994,5.508c0.407,0.612,1.02,1.071,1.836,1.377c0.814,0.307,1.811,0.459,2.984,0.459
		c2.039,0,3.722-0.152,5.049-0.459v9.104C1209.996,570.755,1208.721,570.921,1207.446,570.999"/>
	<path fill="#151143" d="M1228.639,547.013c0,4.54,1.147,8.186,3.443,10.939c2.651,3.266,6.247,4.897,10.787,4.897
		c6.936,0,11.271-3.034,13.006-9.105h11.094c-0.664,2.858-1.734,5.42-3.214,7.69c-1.479,2.269-3.265,4.182-5.355,5.737
		c-2.092,1.557-4.463,2.755-7.114,3.597c-2.653,0.841-5.459,1.261-8.416,1.261c-4.03,0-7.65-0.676-10.864-2.026
		c-3.213-1.351-5.929-3.252-8.147-5.699c-2.219-2.448-3.915-5.396-5.088-8.837c-1.174-3.442-1.76-7.255-1.76-11.438
		c0-7.905,2.346-14.586,7.039-20.044c4.691-5.457,10.863-8.187,18.515-8.187c7.752,0,13.974,2.729,18.667,8.187
		c4.486,4.948,6.732,11.196,6.732,18.744c0,0.715-0.026,1.428-0.076,2.142c-0.052,0.715-0.129,1.429-0.229,2.143H1228.639z
		 M1256.028,539.133c-0.103-1.888-0.511-3.686-1.226-5.395c-0.714-1.709-1.656-3.213-2.829-4.514
		c-1.175-1.3-2.563-2.321-4.171-3.061c-1.605-0.738-3.354-1.108-5.239-1.108c-1.939,0-3.725,0.356-5.355,1.07
		c-1.634,0.716-3.061,1.709-4.285,2.984c-1.224,1.275-2.219,2.768-2.983,4.475c-0.766,1.71-1.199,3.559-1.301,5.548H1256.028z"/>
	<path fill="#151143" d="M1305.375,527.045c-0.611-0.052-1.25-0.077-1.912-0.077c-2.5,0-4.719,0.434-6.656,1.301
		c-1.939,0.868-3.558,2.104-4.858,3.711c-1.302,1.606-2.295,3.52-2.983,5.738c-0.689,2.218-1.033,4.68-1.033,7.383v25.552h-11.553
		v-53.4h10.788v10.327h0.306c0.306-1.579,0.969-3.085,1.989-4.514c1.019-1.427,2.269-2.688,3.749-3.787
		c1.479-1.096,3.148-1.976,5.011-2.639c1.861-0.662,3.813-0.994,5.853-0.994c0.562,0,1.109,0.026,1.646,0.076
		c0.535,0.052,1.083,0.128,1.645,0.229v11.323C1306.648,527.173,1305.987,527.096,1305.375,527.045"/>
	<rect x="1313.484" y="556.729" fill="#151143" width="13.771" height="13.924"/>
	<path fill="#151143" d="M1385.63,559.79c-1.275,2.602-2.959,4.809-5.05,6.617c-2.092,1.813-4.553,3.201-7.383,4.171
		c-2.83,0.968-5.955,1.452-9.372,1.452c-3.979,0-7.562-0.649-10.749-1.95c-3.188-1.301-5.929-3.303-8.225-6.006
		c-4.488-4.998-6.732-11.525-6.732-19.586c0-8.416,2.192-15.197,6.58-20.35c4.641-5.559,11.119-8.34,19.433-8.34
		c6.527,0,11.96,1.633,16.296,4.896c2.295,1.786,4.079,3.892,5.355,6.313c1.273,2.423,2.039,5.215,2.295,8.377h-11.553
		c-1.071-6.886-5.152-10.328-12.241-10.328c-9.691,0-14.536,6.477-14.536,19.432c0,5.102,1.097,9.283,3.29,12.547
		c2.448,3.878,6.044,5.815,10.787,5.815c7.548,0,11.782-3.979,12.7-11.935h11.553C1387.721,554.23,1386.904,557.188,1385.63,559.79"
		/>
	<path fill="#151143" d="M1448.365,543.876c0,8.263-2.296,14.995-6.886,20.197c-4.794,5.306-11.374,7.956-19.739,7.956
		c-4.13,0-7.841-0.676-11.131-2.026c-3.29-1.352-6.082-3.265-8.377-5.738c-2.296-2.473-4.056-5.444-5.279-8.913
		c-1.224-3.468-1.836-7.293-1.836-11.476s0.612-7.995,1.836-11.438c1.224-3.442,2.983-6.399,5.279-8.874
		c2.295-2.474,5.087-4.386,8.377-5.739c3.29-1.35,7.001-2.026,11.131-2.026c8.313,0,14.894,2.628,19.739,7.881
		C1446.069,528.832,1448.365,535.563,1448.365,543.876 M1436.966,543.876c0-5.253-1.25-9.588-3.749-13.006
		c-2.652-3.877-6.479-5.814-11.477-5.814c-4.692,0-8.491,1.989-11.398,5.967c-2.398,3.469-3.596,7.753-3.596,12.854
		c0,5.05,1.197,9.386,3.596,13.006c2.907,3.978,6.706,5.968,11.398,5.968c2.449,0,4.616-0.509,6.504-1.531
		c1.887-1.019,3.545-2.498,4.973-4.437C1435.716,553.313,1436.966,548.977,1436.966,543.876"/>
	<path fill="#151143" d="M1522.807,570.654V538.52c0-4.386-0.485-7.521-1.454-9.409c-1.377-2.703-4.081-4.056-8.109-4.056
		c-1.734,0-3.29,0.332-4.667,0.994c-1.377,0.665-2.563,1.607-3.558,2.832c-0.994,1.223-1.76,2.677-2.295,4.36
		c-0.536,1.683-0.804,3.546-0.804,5.585v31.827h-11.705v-34.353c0-7.497-3.087-11.246-9.258-11.246c-3.163,0-5.814,1.2-7.956,3.597
		c-2.448,2.754-3.673,6.196-3.673,10.327v31.675h-11.553v-53.401h10.94v7.344h0.307c3.773-5.864,9.257-8.798,16.448-8.798
		c7.65,0,12.521,2.934,14.613,8.798c3.773-5.864,9.257-8.798,16.449-8.798c11.984,0,17.979,5.967,17.979,17.903v36.952H1522.807z"/>
	<path fill="#FFF200" d="M1076.307,398.058l19.477,12.476c-5.146,8.078-11.758,14.241-19.836,18.489s-17.232,6.372-27.464,6.372
		c-14.241,0-25.387-4.637-33.434-13.911c-8.048-9.274-12.071-22.169-12.071-38.684c0-11.668,1.525-22.856,4.577-33.568
		c3.052-10.71,7.329-19.925,12.835-27.644c5.444-7.539,11.906-13.252,19.387-17.142c7.479-3.889,15.736-5.834,24.771-5.834
		c11.848,0,21.496,3.141,28.944,9.424c7.451,6.282,12.192,15.258,14.228,26.926l-22.08,3.679
		c-1.018-6.042-3.426-10.739-7.225-14.091c-3.801-3.35-8.692-5.026-14.675-5.026c-4.847,0-9.334,1.272-13.463,3.815
		c-4.129,2.544-7.6,6.178-10.411,10.905c-3.77,6.403-6.792,14.241-9.065,23.515c-2.274,9.276-3.41,18.669-3.41,28.182
		c0,8.796,2.094,15.738,6.282,20.823c4.188,5.086,9.873,7.629,17.054,7.629c5.385,0,10.306-1.42,14.764-4.263
		C1069.948,407.288,1073.554,403.264,1076.307,398.058"/>
	<polygon fill="#FFF200" points="1107.183,432.972 1136.98,300.227 1209.231,300.227 1204.385,321.229 1157.534,321.229 
		1150.354,353.361 1189.396,353.361 1184.729,374.184 1145.597,374.184 1137.16,411.611 1197.115,411.611 1192.269,432.972 	"/>
	<polygon fill="#FFF200" points="1205.911,432.972 1235.709,300.227 1261.468,300.227 1291.535,392.493 1311.999,300.227 
		1336.053,300.227 1306.075,432.972 1282.919,432.972 1251.506,336.308 1229.965,432.972 	"/>
	<polygon fill="#FFF200" points="1353.914,432.972 1378.865,321.947 1346.555,321.947 1351.49,300.227 1438.282,300.227 
		1433.436,321.947 1404.804,321.947 1379.583,432.972 	"/>
	<polygon fill="#FFF200" points="1427.242,432.972 1457.04,300.227 1529.291,300.227 1524.444,321.229 1477.594,321.229 
		1470.413,353.361 1509.456,353.361 1504.788,374.184 1465.656,374.184 1457.22,411.611 1517.175,411.611 1512.328,432.972 	"/>
	<path fill="#FFF200" d="M1525.971,432.971l29.798-132.745h32.849c16.036,0,27.959,2.903,35.768,8.706
		c7.809,5.805,11.713,14.691,11.713,26.657c0,9.993-2.769,18.325-8.303,24.996c-5.535,6.673-13.299,10.995-23.291,12.97
		l20.913,59.416h-25.761l-18.577-55.466h-17.412l-12.297,55.466H1525.971z M1567.885,357.041h16.515
		c8.915,0,15.721-1.75,20.419-5.25c4.696-3.501,7.045-8.541,7.045-15.124c0-5.624-1.69-9.752-5.07-12.386
		c-3.381-2.632-8.633-3.949-15.752-3.949h-14.898L1567.885,357.041z"/>
</g>
<g display="none">
	<defs>
		<rect id="SVGID_1_" x="1200.284" y="0.501" width="444.673" height="259.087"/>
	</defs>
	<clipPath id="SVGID_2_" display="inline">
		<use xlink:href="#SVGID_1_"  overflow="visible"/>
	</clipPath>
	<path display="inline" clip-path="url(#SVGID_2_)" fill="#FFF200" d="M1595.115,259.252h-344.989
		c-27.526,0-49.841-22.315-49.841-49.842V-12.677c0-27.527,22.314-49.842,49.841-49.842h344.989
		c27.527,0,49.843,22.315,49.843,49.842V209.41C1644.958,236.937,1622.643,259.252,1595.115,259.252"/>
</g>
<g display="none">
	<defs>
		<rect id="SVGID_3_" width="1700.79" height="850.39"/>
	</defs>
	<clipPath id="SVGID_4_" display="inline">
		<use xlink:href="#SVGID_3_"  overflow="visible"/>
	</clipPath>
	<polygon display="inline" clip-path="url(#SVGID_4_)" fill="#151143" points="1268.638,51.071 1268.638,73.938 1264.003,73.938 
		1264.003,51.071 1255.543,51.071 1255.543,46.995 1277.153,46.995 1277.153,51.071 	"/>
	<path display="inline" clip-path="url(#SVGID_4_)" fill="#151143" d="M1304.402,60.396c0,3.965-1.125,7.297-3.378,9.996
		c-2.4,2.792-5.547,4.188-9.437,4.188c-3.909,0-7.036-1.396-9.381-4.188c-2.253-2.699-3.379-6.031-3.379-9.996
		c0-1.991,0.283-3.797,0.852-5.417c0.567-1.619,1.43-3.099,2.583-4.439c1.173-1.396,2.54-2.438,4.104-3.127
		c1.563-0.688,3.304-1.033,5.221-1.033c3.909,0,7.055,1.387,9.437,4.16c1.117,1.34,1.96,2.82,2.527,4.439
		C1304.119,56.6,1304.402,58.406,1304.402,60.396 M1299.713,60.396c0-2.829-0.633-5.156-1.898-6.98
		c-1.489-2.14-3.565-3.211-6.227-3.211c-2.699,0-4.756,1.052-6.171,3.155c-1.304,1.862-1.954,4.207-1.954,7.036
		c0,2.885,0.65,5.268,1.954,7.148c1.452,2.122,3.509,3.183,6.171,3.183c2.643,0,4.719-1.061,6.227-3.183
		C1299.08,65.627,1299.713,63.245,1299.713,60.396"/>
	<path display="inline" clip-path="url(#SVGID_4_)" fill="#151143" d="M1329.49,68.717c-0.513,1.284-1.248,2.364-2.206,3.239
		c-0.959,0.875-2.122,1.531-3.49,1.968c-1.368,0.438-2.899,0.656-4.593,0.656c-3.388,0-6.013-0.865-7.873-2.596
		c-2.029-1.824-3.044-4.412-3.044-7.762V46.995h4.635v15.691c0,1.229,0.074,2.276,0.224,3.141c0.148,0.866,0.381,1.569,0.698,2.108
		c0.931,1.713,2.716,2.569,5.36,2.569c2.699,0,4.514-0.856,5.444-2.569c0.614-1.079,0.922-2.829,0.922-5.249V46.995h4.69v17.227
		C1330.258,65.935,1330.002,67.433,1329.49,68.717"/>
	<path display="inline" clip-path="url(#SVGID_4_)" fill="#151143" d="M1353.069,73.938c-0.447-0.744-0.67-2.057-0.67-3.937
		c0-2.606-0.345-4.439-1.033-5.5c-0.819-1.098-2.253-1.648-4.3-1.648h-6.925v11.085h-4.69V46.994h12.927
		c5.789,0,8.684,2.467,8.684,7.399c0,3.37-1.479,5.594-4.439,6.674v0.055c2.662,0.522,3.993,2.43,3.993,5.724
		c0,3.667,0.475,6.031,1.424,7.092H1353.069z M1352.399,54.952c0-2.736-1.527-4.104-4.579-4.104h-7.679v8.348h7.734
		C1350.892,59.196,1352.399,57.782,1352.399,54.952"/>
	<polygon display="inline" clip-path="url(#SVGID_4_)" fill="#151143" points="1400.868,73.938 1396.065,73.938 1390.761,53.417 
		1390.705,53.417 1385.316,73.938 1380.402,73.938 1373.479,46.995 1378.225,46.995 1382.972,67.656 1383.027,67.656 
		1388.416,46.995 1393.218,46.995 1398.355,67.656 1398.411,67.656 1403.381,46.995 1408.128,46.995 	"/>
	<polygon display="inline" clip-path="url(#SVGID_4_)" fill="#151143" points="1427.895,73.938 1427.895,61.765 1415.722,61.765 
		1415.722,73.938 1411.031,73.938 1411.031,46.995 1415.722,46.995 1415.722,57.688 1427.895,57.688 1427.895,46.995 
		1432.586,46.995 1432.586,73.938 	"/>
	<path display="inline" clip-path="url(#SVGID_4_)" fill="#151143" d="M1462.348,60.396c0,3.965-1.125,7.297-3.378,9.996
		c-2.4,2.792-5.547,4.188-9.437,4.188c-3.909,0-7.036-1.396-9.381-4.188c-2.253-2.699-3.379-6.031-3.379-9.996
		c0-1.991,0.283-3.797,0.852-5.417c0.567-1.619,1.43-3.099,2.583-4.439c1.173-1.396,2.54-2.438,4.104-3.127
		c1.563-0.688,3.304-1.033,5.221-1.033c3.909,0,7.055,1.387,9.437,4.16c1.117,1.34,1.96,2.82,2.527,4.439
		C1462.064,56.6,1462.348,58.406,1462.348,60.396 M1457.658,60.396c0-2.829-0.633-5.156-1.898-6.98
		c-1.489-2.14-3.565-3.211-6.227-3.211c-2.699,0-4.756,1.052-6.171,3.155c-1.304,1.862-1.954,4.207-1.954,7.036
		c0,2.885,0.65,5.268,1.954,7.148c1.452,2.122,3.509,3.183,6.171,3.183c2.643,0,4.719-1.061,6.227-3.183
		C1457.025,65.627,1457.658,63.245,1457.658,60.396"/>
	<polygon display="inline" clip-path="url(#SVGID_4_)" fill="#151143" points="1466.509,73.938 1466.509,46.995 1471.199,46.995 
		1471.199,69.89 1484.769,69.89 1484.769,73.938 	"/>
	<path display="inline" clip-path="url(#SVGID_4_)" fill="#151143" d="M1508.027,66.092c0,2.83-1.108,5.007-3.323,6.533
		c-1.862,1.303-4.28,1.955-7.259,1.955c-3.258,0-5.845-0.763-7.762-2.29c-2.122-1.675-3.211-4.094-3.267-7.259h4.578
		c0,3.797,2.271,5.696,6.813,5.696c1.898,0,3.322-0.419,4.271-1.257c0.838-0.707,1.256-1.637,1.256-2.792
		c0-1.507-0.763-2.633-2.289-3.378c-0.429-0.205-1.07-0.428-1.927-0.67s-1.926-0.493-3.211-0.754c-2.755-0.596-4.7-1.265-5.835-2.01
		c-1.787-1.229-2.681-3.099-2.681-5.612c0-2.55,1.023-4.551,3.071-6.003c1.769-1.247,3.983-1.871,6.646-1.871
		c2.866,0,5.249,0.726,7.147,2.178c2.028,1.545,3.043,3.658,3.043,6.338h-4.69c-0.187-3.127-2.149-4.691-5.892-4.691
		c-1.172,0-2.224,0.326-3.154,0.977c-1.024,0.671-1.536,1.583-1.536,2.737c0,1.47,0.801,2.522,2.401,3.155
		c0.261,0.111,0.842,0.279,1.744,0.502c0.903,0.224,2.109,0.494,3.616,0.81c1.285,0.261,2.401,0.572,3.351,0.935
		c0.948,0.363,1.722,0.778,2.317,1.243C1507.171,61.831,1508.027,63.673,1508.027,66.092"/>
	<path display="inline" clip-path="url(#SVGID_4_)" fill="#151143" d="M1529.414,73.938l-2.513-7.147h-10.582l-2.401,7.147h-4.914
		l10.163-26.943h4.97l10.191,26.943H1529.414z M1521.68,51.574h-0.111l-4.049,11.671h8.182L1521.68,51.574z"/>
	<polygon display="inline" clip-path="url(#SVGID_4_)" fill="#151143" points="1536.841,73.938 1536.841,46.995 1541.531,46.995 
		1541.531,69.89 1555.101,69.89 1555.101,73.938 	"/>
	<polygon display="inline" clip-path="url(#SVGID_4_)" fill="#151143" points="1558.284,73.938 1558.284,46.995 1577.745,46.995 
		1577.745,51.071 1562.975,51.071 1562.975,58.051 1576.432,58.051 1576.432,61.988 1562.975,61.988 1562.975,69.89 1577.745,69.89 
		1577.745,73.938 	"/>
	<path display="inline" clip-path="url(#SVGID_4_)" fill="#151143" d="M1599.579,73.938c-0.447-0.744-0.67-2.057-0.67-3.937
		c0-2.606-0.345-4.439-1.033-5.5c-0.819-1.098-2.253-1.648-4.3-1.648h-6.925v11.085h-4.69V46.994h12.927
		c5.789,0,8.684,2.467,8.684,7.399c0,3.37-1.479,5.594-4.439,6.674v0.055c2.662,0.522,3.993,2.43,3.993,5.724
		c0,3.667,0.475,6.031,1.424,7.092H1599.579z M1598.909,54.952c0-2.736-1.527-4.104-4.579-4.104h-7.679v8.348h7.734
		C1597.401,59.196,1598.909,57.782,1598.909,54.952"/>
	<polygon display="inline" clip-path="url(#SVGID_4_)" fill="#151143" points="1229.619,146.938 1229.619,119.995 1234.309,119.995 
		1234.309,142.89 1247.879,142.89 1247.879,146.938 	"/>
	<path display="inline" clip-path="url(#SVGID_4_)" fill="#151143" d="M1268.4,146.938l-2.512-7.147h-10.582l-2.401,7.147h-4.914
		l10.163-26.943h4.97l10.19,26.943H1268.4z M1260.667,124.574h-0.111l-4.049,11.671h8.181L1260.667,124.574z"/>
	<polygon display="inline" clip-path="url(#SVGID_4_)" fill="#151143" points="1292.357,146.938 1280.184,127.031 1280.072,127.031 
		1280.072,146.938 1275.661,146.938 1275.661,119.995 1280.631,119.995 1292.832,139.902 1292.888,139.902 1292.888,119.995 
		1297.327,119.995 1297.327,146.938 	"/>
	<path display="inline" clip-path="url(#SVGID_4_)" fill="#151143" d="M1325.582,133.396c0,4.021-0.912,7.222-2.736,9.604
		c-2.065,2.625-5.035,3.938-8.906,3.938h-11.112v-26.944h11.112c3.871,0,6.841,1.303,8.906,3.909
		C1324.67,126.23,1325.582,129.396,1325.582,133.396 M1320.976,133.396c0-1.526-0.146-2.848-0.433-3.965
		c-0.289-1.117-0.703-2.047-1.243-2.792c-1.396-1.861-3.778-2.792-7.147-2.792h-4.635v19.265h4.635c3.351,0,5.733-0.939,7.147-2.82
		c0.54-0.781,0.954-1.74,1.243-2.875C1320.83,136.282,1320.976,134.942,1320.976,133.396"/>
	<path display="inline" clip-path="url(#SVGID_4_)" fill="#151143" d="M1360.706,146.938l-2.289-2.903
		c-1.769,2.271-4.3,3.406-7.595,3.406c-1.248,0-2.383-0.181-3.406-0.545c-1.024-0.362-1.903-0.888-2.639-1.577
		c-0.735-0.688-1.303-1.526-1.703-2.513c-0.4-0.986-0.601-2.103-0.601-3.351c0-3.107,2.019-5.723,6.06-7.845
		c-1.75-2.215-2.625-4.16-2.625-5.835c0-0.968,0.163-1.847,0.488-2.639c0.326-0.791,0.777-1.466,1.354-2.024
		s1.261-0.987,2.052-1.284c0.791-0.298,1.643-0.447,2.555-0.447c1.861,0,3.406,0.531,4.635,1.592
		c1.341,1.228,2.011,2.829,2.011,4.802c0,2.81-1.582,5.1-4.746,6.868l4.048,5.026c0.428-1.303,0.698-2.504,0.81-3.602h3.714
		c-0.279,2.588-0.968,4.784-2.066,6.589l5.109,6.282H1360.706z M1350.767,134.486c-0.801,0.484-1.415,0.865-1.843,1.145
		c-0.43,0.279-0.689,0.465-0.782,0.558c-0.949,0.838-1.424,1.964-1.424,3.378c0,0.689,0.103,1.313,0.308,1.871
		c0.204,0.558,0.497,1.033,0.879,1.424c0.381,0.391,0.828,0.694,1.34,0.907c0.513,0.215,1.075,0.322,1.689,0.322
		c2.104,0,3.815-0.959,5.138-2.876L1350.767,134.486z M1355.178,125.663c0-0.912-0.247-1.661-0.74-2.248
		c-0.493-0.586-1.149-0.879-1.968-0.879c-0.801,0-1.466,0.275-1.996,0.824c-0.531,0.549-0.796,1.28-0.796,2.191
		c0,0.745,0.288,1.546,0.865,2.402l1.535,2.01C1354.145,128.66,1355.178,127.226,1355.178,125.663"/>
	<path display="inline" clip-path="url(#SVGID_4_)" fill="#151143" d="M1406.689,133.396c0,3.965-1.125,7.297-3.378,9.996
		c-2.4,2.792-5.547,4.188-9.437,4.188c-3.909,0-7.036-1.396-9.381-4.188c-2.253-2.699-3.379-6.031-3.379-9.996
		c0-1.991,0.283-3.797,0.852-5.417c0.567-1.619,1.43-3.099,2.583-4.439c1.173-1.396,2.54-2.438,4.104-3.127
		c1.563-0.688,3.304-1.033,5.221-1.033c3.909,0,7.055,1.387,9.437,4.16c1.117,1.34,1.96,2.82,2.527,4.439
		C1406.406,129.6,1406.689,131.406,1406.689,133.396 M1402,133.396c0-2.829-0.633-5.156-1.898-6.98
		c-1.489-2.14-3.565-3.211-6.227-3.211c-2.699,0-4.756,1.052-6.171,3.155c-1.304,1.862-1.954,4.207-1.954,7.036
		c0,2.885,0.65,5.268,1.954,7.148c1.452,2.122,3.509,3.183,6.171,3.183c2.643,0,4.719-1.061,6.227-3.183
		C1401.367,138.627,1402,136.245,1402,133.396"/>
	<path display="inline" clip-path="url(#SVGID_4_)" fill="#151143" d="M1431.623,128.455c0,2.14-0.558,3.937-1.675,5.388
		c-1.526,1.993-3.983,2.988-7.371,2.988h-7.036v10.107h-4.69v-26.943h11.671C1428.589,119.995,1431.623,122.815,1431.623,128.455
		 M1426.988,128.343c0-2.997-1.563-4.495-4.69-4.495h-6.757v9.13h6.757c1.247,0,2.298-0.344,3.155-1.033
		C1426.477,131.089,1426.988,129.888,1426.988,128.343"/>
	<polygon display="inline" clip-path="url(#SVGID_4_)" fill="#151143" points="1435.616,146.938 1435.616,119.995 1455.077,119.995 
		1455.077,124.071 1440.307,124.071 1440.307,131.051 1453.764,131.051 1453.764,134.988 1440.307,134.988 1440.307,142.89 
		1455.077,142.89 1455.077,146.938 	"/>
	<path display="inline" clip-path="url(#SVGID_4_)" fill="#151143" d="M1476.911,146.938c-0.447-0.744-0.67-2.057-0.67-3.937
		c0-2.606-0.345-4.439-1.033-5.5c-0.819-1.098-2.253-1.648-4.3-1.648h-6.925v11.085h-4.69v-26.944h12.927
		c5.789,0,8.684,2.467,8.684,7.399c0,3.37-1.479,5.594-4.439,6.674v0.055c2.662,0.522,3.993,2.43,3.993,5.724
		c0,3.667,0.475,6.031,1.424,7.092H1476.911z M1476.241,127.952c0-2.736-1.527-4.104-4.579-4.104h-7.679v8.348h7.734
		C1474.733,132.196,1476.241,130.782,1476.241,127.952"/>
	<path display="inline" clip-path="url(#SVGID_4_)" fill="#151143" d="M1502.932,146.938l-2.512-7.147h-10.582l-2.401,7.147h-4.914
		l10.163-26.943h4.97l10.19,26.943H1502.932z M1495.198,124.574h-0.111l-4.049,11.671h8.181L1495.198,124.574z"/>
	<polygon display="inline" clip-path="url(#SVGID_4_)" fill="#151143" points="1520.941,124.071 1520.941,146.938 1516.307,146.938 
		1516.307,124.071 1507.847,124.071 1507.847,119.995 1529.457,119.995 1529.457,124.071 	"/>
	<rect x="1532.556" y="119.995" display="inline" clip-path="url(#SVGID_4_)" fill="#151143" width="4.69" height="26.943"/>
	<path display="inline" clip-path="url(#SVGID_4_)" fill="#151143" d="M1567.121,133.396c0,3.965-1.127,7.297-3.379,9.996
		c-2.4,2.792-5.547,4.188-9.437,4.188c-3.909,0-7.036-1.396-9.381-4.188c-2.253-2.699-3.379-6.031-3.379-9.996
		c0-1.991,0.282-3.797,0.852-5.417c0.567-1.619,1.429-3.099,2.583-4.439c1.173-1.396,2.54-2.438,4.104-3.127
		c1.563-0.688,3.304-1.033,5.221-1.033c3.909,0,7.055,1.387,9.437,4.16c1.117,1.34,1.959,2.82,2.527,4.439
		C1566.837,129.6,1567.121,131.406,1567.121,133.396 M1562.431,133.396c0-2.829-0.633-5.156-1.898-6.98
		c-1.489-2.14-3.565-3.211-6.227-3.211c-2.699,0-4.756,1.052-6.171,3.155c-1.303,1.862-1.954,4.207-1.954,7.036
		c0,2.885,0.651,5.268,1.954,7.148c1.452,2.122,3.509,3.183,6.171,3.183c2.643,0,4.719-1.061,6.227-3.183
		C1561.798,138.627,1562.431,136.245,1562.431,133.396"/>
	<polygon display="inline" clip-path="url(#SVGID_4_)" fill="#151143" points="1587.811,146.938 1575.637,127.031 1575.525,127.031 
		1575.525,146.938 1571.114,146.938 1571.114,119.995 1576.084,119.995 1588.285,139.902 1588.341,139.902 1588.341,119.995 
		1592.78,119.995 1592.78,146.938 	"/>
	<path display="inline" clip-path="url(#SVGID_4_)" fill="#151143" d="M1618.355,139.092c0,2.83-1.108,5.007-3.323,6.533
		c-1.862,1.303-4.28,1.955-7.259,1.955c-3.258,0-5.845-0.763-7.762-2.29c-2.122-1.675-3.211-4.094-3.267-7.259h4.578
		c0,3.797,2.271,5.696,6.813,5.696c1.898,0,3.322-0.419,4.271-1.257c0.838-0.707,1.256-1.637,1.256-2.792
		c0-1.507-0.763-2.633-2.289-3.378c-0.429-0.205-1.07-0.428-1.927-0.67s-1.926-0.493-3.211-0.754c-2.755-0.596-4.7-1.265-5.835-2.01
		c-1.787-1.229-2.681-3.099-2.681-5.612c0-2.55,1.023-4.551,3.071-6.003c1.769-1.247,3.983-1.871,6.646-1.871
		c2.866,0,5.249,0.726,7.147,2.178c2.028,1.545,3.043,3.658,3.043,6.338h-4.69c-0.187-3.127-2.149-4.691-5.892-4.691
		c-1.172,0-2.224,0.326-3.154,0.977c-1.024,0.671-1.536,1.583-1.536,2.737c0,1.47,0.801,2.522,2.401,3.155
		c0.261,0.111,0.842,0.279,1.744,0.502c0.903,0.224,2.109,0.494,3.616,0.81c1.285,0.261,2.401,0.572,3.351,0.935
		c0.948,0.363,1.722,0.778,2.317,1.243C1617.499,134.831,1618.355,136.673,1618.355,139.092"/>
	<polygon display="inline" clip-path="url(#SVGID_4_)" fill="#151143" points="1345.476,197.071 1345.476,219.938 1340.841,219.938 
		1340.841,197.071 1332.381,197.071 1332.381,192.995 1353.991,192.995 1353.991,197.071 	"/>
	<rect x="1357.09" y="192.995" display="inline" clip-path="url(#SVGID_4_)" fill="#151143" width="4.69" height="26.943"/>
	<path display="inline" clip-path="url(#SVGID_4_)" fill="#151143" d="M1386.797,217.593c-2.048,1.992-4.7,2.987-7.957,2.987
		c-3.854,0-6.981-1.396-9.381-4.188c-2.253-2.698-3.379-6.03-3.379-9.995c0-4.002,1.107-7.287,3.322-9.856
		c2.327-2.773,5.473-4.16,9.438-4.16c1.545,0,2.979,0.214,4.3,0.642c1.321,0.428,2.48,1.043,3.476,1.842
		c0.996,0.801,1.802,1.773,2.416,2.918c0.614,1.146,0.986,2.434,1.116,3.867h-4.69c-0.726-3.629-2.932-5.444-6.617-5.444
		c-2.699,0-4.756,1.052-6.171,3.155c-1.303,1.861-1.954,4.207-1.954,7.036c0,2.885,0.651,5.268,1.954,7.148
		c1.452,2.121,3.509,3.182,6.171,3.182c2.011,0,3.611-0.679,4.803-2.038c1.135-1.247,1.805-2.913,2.01-4.997h4.495
		C1389.98,212.912,1388.863,215.546,1386.797,217.593"/>
	<polygon display="inline" clip-path="url(#SVGID_4_)" fill="#151143" points="1411.674,219.938 1403.047,207.178 1399.138,211.311 
		1399.138,219.938 1394.447,219.938 1394.447,192.995 1399.138,192.995 1399.138,205.196 1411.031,192.995 1416.699,192.995 
		1406.174,203.8 1417.454,219.938 	"/>
	<polygon display="inline" clip-path="url(#SVGID_4_)" fill="#151143" points="1419.883,219.938 1419.883,192.995 1439.344,192.995 
		1439.344,197.071 1424.572,197.071 1424.572,204.051 1438.031,204.051 1438.031,207.988 1424.572,207.988 1424.572,215.89 
		1439.344,215.89 1439.344,219.938 	"/>
	<polygon display="inline" clip-path="url(#SVGID_4_)" fill="#151143" points="1454.142,197.071 1454.142,219.938 1449.507,219.938 
		1449.507,197.071 1441.047,197.071 1441.047,192.995 1462.657,192.995 1462.657,197.071 	"/>
	<rect x="1465.756" y="192.995" display="inline" clip-path="url(#SVGID_4_)" fill="#151143" width="4.69" height="26.943"/>
	<polygon display="inline" clip-path="url(#SVGID_4_)" fill="#151143" points="1492.644,219.938 1480.47,200.031 1480.358,200.031 
		1480.358,219.938 1475.947,219.938 1475.947,192.995 1480.916,192.995 1493.118,212.902 1493.174,212.902 1493.174,192.995 
		1497.613,192.995 1497.613,219.938 	"/>
	<path display="inline" clip-path="url(#SVGID_4_)" fill="#151143" d="M1523.468,219.938l-0.728-2.959
		c-1.897,2.4-4.587,3.601-8.067,3.601c-3.965,0-7.13-1.377-9.493-4.132c-2.178-2.569-3.267-5.919-3.267-10.052
		c0-3.927,1.145-7.249,3.434-9.967c2.364-2.699,5.473-4.049,9.326-4.049c1.524,0,2.927,0.187,4.201,0.559
		c1.275,0.373,2.425,0.949,3.447,1.731c2.179,1.638,3.444,3.946,3.799,6.924h-4.523c-0.111-0.837-0.373-1.591-0.782-2.261
		c-0.41-0.67-0.926-1.238-1.549-1.704c-0.624-0.464-1.326-0.818-2.109-1.062c-0.78-0.241-1.609-0.362-2.483-0.362
		c-2.699,0-4.757,1.051-6.171,3.155c-1.303,1.861-1.954,4.206-1.954,7.035c0,2.886,0.651,5.269,1.954,7.148
		c1.452,2.122,3.509,3.183,6.171,3.183c1.19,0,2.247-0.167,3.169-0.502c0.921-0.335,1.698-0.824,2.331-1.466
		c0.633-0.642,1.116-1.415,1.452-2.318c0.335-0.902,0.512-1.931,0.531-3.085h-7.261v-3.602h11.504v14.184H1523.468z"/>
	
		<line display="inline" clip-path="url(#SVGID_4_)" fill="none" stroke="#262262" stroke-miterlimit="10" x1="1279.691" y1="101.107" x2="1565.55" y2="101.107"/>
	
		<line display="inline" clip-path="url(#SVGID_4_)" fill="none" stroke="#262262" stroke-miterlimit="10" x1="1279.691" y1="168.237" x2="1565.55" y2="168.237"/>
	<path display="inline" clip-path="url(#SVGID_4_)" fill="#FFFFFF" d="M1339.652,501.296"/>
</g>
</svg>
